<svg width="92" height="35" viewBox="0 0 92 35" fill="none" xmlns="http://www.w3.org/2000/svg">
<path d="M37.0163 28L30.8843 13.804H35.3363L39.3963 24.108H38.4723L42.6723 13.804H46.8443L40.6563 28H37.0163ZM47.4822 28V13.804H51.7102V28H47.4822ZM47.3142 11.48V7.532H51.8502V11.48H47.3142ZM61.4658 28.308C59.0018 28.308 57.0791 27.6453 55.6978 26.32C54.3164 24.9947 53.6258 23.1933 53.6258 20.916C53.6258 19.4413 53.9151 18.1533 54.4938 17.052C55.0911 15.9507 55.9124 15.092 56.9578 14.476C58.0218 13.8413 59.2631 13.524 60.6818 13.524C62.0818 13.524 63.2484 13.8227 64.1818 14.42C65.1338 15.0173 65.8431 15.8573 66.3098 16.94C66.7951 18.004 67.0378 19.2453 67.0378 20.664V21.644H57.0978V19.544H63.9578L63.4818 19.936C63.4818 18.76 63.2391 17.8733 62.7538 17.276C62.2871 16.66 61.6058 16.352 60.7098 16.352C59.7204 16.352 58.9551 16.716 58.4138 17.444C57.8911 18.172 57.6298 19.2173 57.6298 20.58V21.028C57.6298 22.4093 57.9658 23.436 58.6378 24.108C59.3284 24.78 60.3178 25.116 61.6058 25.116C62.3711 25.116 63.0898 25.0227 63.7618 24.836C64.4524 24.6307 65.1058 24.3133 65.7218 23.884L66.8978 26.684C66.1884 27.2067 65.3671 27.608 64.4338 27.888C63.5191 28.168 62.5298 28.308 61.4658 28.308ZM72.6382 28L66.9262 13.804H71.2662L75.0182 24.024H74.2902L78.0702 13.804H80.8702L84.6222 24.024H84.0342L87.7302 13.804H91.8182L86.1342 28H82.4942L78.4622 17.528H80.1702L76.2782 28H72.6382Z" fill="#3E45EB"/>
<circle cx="10" cy="16" r="10" fill="#C3C5FA"/>
<circle cx="23" cy="29" r="5" fill="#C3C5FA"/>
</svg>
