<svg width="223" height="215" viewBox="0 0 223 215" fill="none" xmlns="http://www.w3.org/2000/svg">
<path d="M96.6544 48.6194C91.0261 45.3812 84.5642 43.8842 78.0853 44.3175C71.6064 44.7508 65.4014 47.095 60.2544 51.0537C55.1073 55.0125 51.2494 60.4082 49.168 66.5589C47.0866 72.7097 46.8752 79.3393 48.5606 85.6102C50.2459 91.881 53.7524 97.5115 58.6368 101.79C63.5212 106.069 69.5643 108.803 76.0024 109.648C82.4405 110.494 88.9847 109.411 94.8079 106.538C100.631 103.665 105.472 99.1303 108.719 93.5069C113.064 85.9531 114.235 76.9834 111.973 68.5673C109.711 60.1512 104.202 52.9767 96.6544 48.6194ZM68.638 97.1453C64.675 94.8373 61.4848 91.4068 59.4702 87.2869C57.4557 83.167 56.7072 78.5425 57.3192 73.9975C57.9312 69.4525 59.8764 65.1907 62.909 61.7505C65.9415 58.3102 69.9255 55.8457 74.3579 54.6683C78.7902 53.4908 83.472 53.6532 87.8121 55.1349C92.1522 56.6166 95.9559 59.3512 98.7429 62.9933C101.53 66.6354 103.175 71.0216 103.471 75.5982C103.766 80.1747 102.699 84.7362 100.404 88.7066C98.8724 91.3465 96.8358 93.6588 94.4104 95.5116C91.9851 97.3644 89.2185 98.7213 86.2688 99.505C83.319 100.289 80.2438 100.483 77.2187 100.079C74.1936 99.6737 71.2779 98.677 68.638 97.1453Z" fill="#04FF4B" stroke="white" stroke-width="1.0631" stroke-miterlimit="10"/>
<g opacity="0.2">
<path d="M96.6544 48.6194C91.0261 45.3812 84.5642 43.8842 78.0853 44.3175C71.6064 44.7508 65.4014 47.095 60.2544 51.0537C55.1073 55.0125 51.2494 60.4082 49.168 66.5589C47.0866 72.7097 46.8752 79.3393 48.5606 85.6102C50.2459 91.881 53.7524 97.5115 58.6368 101.79C63.5212 106.069 69.5643 108.803 76.0024 109.648C82.4405 110.494 88.9847 109.411 94.8079 106.538C100.631 103.665 105.472 99.1303 108.719 93.5069C113.064 85.9531 114.235 76.9834 111.973 68.5673C109.711 60.1512 104.202 52.9767 96.6544 48.6194ZM68.638 97.1453C64.675 94.8373 61.4848 91.4068 59.4702 87.2869C57.4557 83.167 56.7072 78.5425 57.3192 73.9975C57.9312 69.4525 59.8764 65.1907 62.909 61.7505C65.9415 58.3102 69.9255 55.8457 74.3579 54.6683C78.7902 53.4908 83.472 53.6532 87.8121 55.1349C92.1522 56.6166 95.9559 59.3512 98.7429 62.9933C101.53 66.6354 103.175 71.0216 103.471 75.5982C103.766 80.1747 102.699 84.7362 100.404 88.7066C98.8724 91.3465 96.8358 93.6588 94.4104 95.5116C91.9851 97.3644 89.2185 98.7213 86.2688 99.505C83.319 100.289 80.2438 100.483 77.2187 100.079C74.1936 99.6737 71.2779 98.677 68.638 97.1453Z" fill="black"/>
</g>
<path d="M96.6544 48.6194C91.0261 45.3812 84.5642 43.8842 78.0853 44.3175C71.6064 44.7508 65.4014 47.095 60.2544 51.0537C55.1073 55.0125 51.2494 60.4082 49.168 66.5589C47.0866 72.7097 46.8752 79.3393 48.5606 85.6102C50.2459 91.881 53.7524 97.5115 58.6368 101.79C63.5212 106.069 69.5643 108.803 76.0024 109.648C82.4405 110.494 88.9847 109.411 94.8079 106.538C100.631 103.665 105.472 99.1303 108.719 93.5069C113.064 85.9531 114.235 76.9834 111.973 68.5673C109.711 60.1512 104.202 52.9767 96.6544 48.6194ZM68.638 97.1453C64.675 94.8373 61.4848 91.4068 59.4702 87.2869C57.4557 83.167 56.7072 78.5425 57.3192 73.9975C57.9312 69.4525 59.8764 65.1907 62.909 61.7505C65.9415 58.3102 69.9255 55.8457 74.3579 54.6683C78.7902 53.4908 83.472 53.6532 87.8121 55.1349C92.1522 56.6166 95.9559 59.3512 98.7429 62.9933C101.53 66.6354 103.175 71.0216 103.471 75.5982C103.766 80.1747 102.699 84.7362 100.404 88.7066C98.8724 91.3465 96.8358 93.6588 94.4104 95.5116C91.9851 97.3644 89.2185 98.7213 86.2688 99.505C83.319 100.289 80.2438 100.483 77.2187 100.079C74.1936 99.6737 71.2779 98.677 68.638 97.1453Z" stroke="white" stroke-width="1.0631" stroke-miterlimit="10"/>
<path d="M96.6549 48.6194C92.8199 46.3845 88.5694 44.9552 84.1633 44.419C79.7572 43.8827 75.2879 44.2506 71.0288 45.5003L73.7296 54.7622C77.4157 53.683 81.312 53.5352 85.0692 54.3321C88.8264 55.1289 92.3273 56.8455 95.258 59.3279C98.1887 61.8104 100.458 64.9812 101.862 68.5561C103.266 72.1311 103.761 75.9986 103.303 79.812C102.845 83.6254 101.448 87.2655 99.2371 90.4063C97.0264 93.547 94.0709 96.0902 90.6356 97.808C87.2004 99.5257 83.3926 100.364 79.5535 100.249C75.7145 100.133 71.9641 99.0667 68.6384 97.1453L63.8194 105.492C67.5578 107.749 71.7087 109.237 76.0292 109.87C80.3497 110.503 84.7532 110.269 88.9819 109.18C93.2106 108.091 97.1796 106.169 100.657 103.528C104.134 100.886 107.05 97.5782 109.233 93.7965C111.416 90.0148 112.824 85.8358 113.373 81.5037C113.921 77.1717 113.601 72.7736 112.43 68.567C111.258 64.3603 109.26 60.4294 106.551 57.0043C103.843 53.5792 100.478 50.7286 96.6549 48.6194Z" fill="white" stroke="white" stroke-width="1.0631" stroke-linecap="round" stroke-linejoin="round"/>
<path d="M166.906 89.179C161.278 85.9409 154.816 84.4439 148.337 84.8772C141.858 85.3105 135.653 87.6546 130.506 91.6134C125.359 95.5721 121.501 100.968 119.42 107.119C117.339 113.269 117.127 119.899 118.813 126.17C120.498 132.441 124.004 138.071 128.889 142.35C133.773 146.628 139.816 149.363 146.254 150.208C152.692 151.053 159.237 149.971 165.06 147.098C170.883 144.225 175.724 139.69 178.97 134.067C183.316 126.513 184.487 117.543 182.225 109.127C179.963 100.711 174.454 93.5364 166.906 89.179ZM138.89 137.705C134.917 135.408 131.714 131.985 129.686 127.868C127.659 123.751 126.898 119.125 127.499 114.575C128.101 110.025 130.038 105.756 133.065 102.308C136.093 98.8589 140.076 96.3854 144.509 95.2C148.943 94.0146 153.628 94.1705 157.973 95.648C162.318 97.1255 166.127 99.8582 168.919 103.501C171.711 107.143 173.36 111.531 173.657 116.111C173.955 120.691 172.888 125.256 170.591 129.229C167.502 134.547 162.432 138.424 156.491 140.013C150.549 141.601 144.221 140.771 138.89 137.705Z" fill="#04FF4B" stroke="white" stroke-width="1.0631" stroke-miterlimit="10"/>
<g opacity="0.2">
<path d="M166.906 89.179C161.278 85.9409 154.816 84.4439 148.337 84.8772C141.858 85.3105 135.653 87.6546 130.506 91.6134C125.359 95.5721 121.501 100.968 119.42 107.119C117.339 113.269 117.127 119.899 118.813 126.17C120.498 132.441 124.004 138.071 128.889 142.35C133.773 146.628 139.816 149.363 146.254 150.208C152.692 151.053 159.237 149.971 165.06 147.098C170.883 144.225 175.724 139.69 178.97 134.067C183.316 126.513 184.487 117.543 182.225 109.127C179.963 100.711 174.454 93.5364 166.906 89.179ZM138.89 137.705C134.917 135.408 131.714 131.985 129.686 127.868C127.659 123.751 126.898 119.125 127.499 114.575C128.101 110.025 130.038 105.756 133.065 102.308C136.093 98.8589 140.076 96.3854 144.509 95.2C148.943 94.0146 153.628 94.1705 157.973 95.648C162.318 97.1255 166.127 99.8582 168.919 103.501C171.711 107.143 173.36 111.531 173.657 116.111C173.955 120.691 172.888 125.256 170.591 129.229C167.502 134.547 162.432 138.424 156.491 140.013C150.549 141.601 144.221 140.771 138.89 137.705Z" fill="black"/>
</g>
<path d="M166.906 89.179C161.278 85.9409 154.816 84.4439 148.337 84.8772C141.858 85.3105 135.653 87.6546 130.506 91.6134C125.359 95.5721 121.501 100.968 119.42 107.119C117.339 113.269 117.127 119.899 118.813 126.17C120.498 132.441 124.004 138.071 128.889 142.35C133.773 146.628 139.816 149.363 146.254 150.208C152.692 151.053 159.237 149.971 165.06 147.098C170.883 144.225 175.724 139.69 178.97 134.067C183.316 126.513 184.487 117.543 182.225 109.127C179.963 100.711 174.454 93.5364 166.906 89.179ZM138.89 137.705C134.917 135.408 131.714 131.985 129.686 127.868C127.659 123.751 126.898 119.125 127.499 114.575C128.101 110.025 130.038 105.756 133.065 102.308C136.093 98.8589 140.076 96.3854 144.509 95.2C148.943 94.0146 153.628 94.1705 157.973 95.648C162.318 97.1255 166.127 99.8582 168.919 103.501C171.711 107.143 173.36 111.531 173.657 116.111C173.955 120.691 172.888 125.256 170.591 129.229C167.502 134.547 162.432 138.424 156.491 140.013C150.549 141.601 144.221 140.771 138.89 137.705Z" stroke="white" stroke-width="1.0631" stroke-miterlimit="10"/>
<path d="M176.706 97.8167L169.027 103.635C172.256 107.907 173.907 113.164 173.701 118.515C173.495 123.865 171.445 128.98 167.898 132.992C164.352 137.003 159.527 139.665 154.242 140.525C148.957 141.385 143.537 140.391 138.901 137.711L134.082 146.058C140.643 149.866 148.321 151.285 155.809 150.072C163.298 148.859 170.136 145.091 175.16 139.407C180.184 133.723 183.084 126.474 183.368 118.893C183.652 111.312 181.302 103.867 176.716 97.8229L176.706 97.8167Z" fill="white" stroke="white" stroke-width="1.0631" stroke-linecap="round" stroke-linejoin="round"/>
<path d="M207.106 76.7554L89.7327 8.9897C87.6902 7.80855 85.435 7.04128 83.096 6.73169C80.7569 6.42209 78.3798 6.57625 76.1003 7.18533C73.8208 7.79442 71.6836 8.84652 69.8108 10.2816C67.9379 11.7166 66.366 13.5065 65.1849 15.549L8.97118 112.914C6.59542 117.042 5.95602 121.945 7.19355 126.544C8.43109 131.143 11.4443 135.063 15.5708 137.442L132.944 205.208C134.986 206.39 137.24 207.158 139.578 207.469C141.916 207.78 144.293 207.627 146.572 207.019C148.851 206.41 150.988 205.359 152.861 203.925C154.733 202.49 156.305 200.701 157.486 198.659L213.7 101.294C214.878 99.2499 215.642 96.9937 215.948 94.6542C216.255 92.3147 216.097 89.9378 215.485 87.6592C214.873 85.3805 213.818 83.2448 212.38 81.3739C210.942 79.5031 209.15 77.9337 207.106 76.7554Z" stroke="white" stroke-width="1.0631" stroke-miterlimit="10"/>
<path d="M33.1162 100.219L77.8629 126.054" stroke="white" stroke-width="1.0631" stroke-miterlimit="10"/>
<path d="M30.3545 105.003L75.1011 130.837" stroke="white" stroke-width="1.0631" stroke-miterlimit="10"/>
<path d="M27.5928 109.786L72.3394 135.621" stroke="white" stroke-width="1.0631" stroke-miterlimit="10"/>
<path d="M24.8252 114.581L69.5718 140.415" stroke="white" stroke-width="1.0631" stroke-miterlimit="10"/>
<path d="M22.0635 119.364L66.8101 145.199" stroke="white" stroke-width="1.0631" stroke-miterlimit="10"/>
<path d="M107.018 142.886L151.775 168.727" stroke="white" stroke-width="1.0631" stroke-miterlimit="10"/>
<path d="M104.256 147.67L149.013 173.51" stroke="white" stroke-width="1.0631" stroke-miterlimit="10"/>
<path d="M101.494 152.453L146.252 178.294" stroke="white" stroke-width="1.0631" stroke-miterlimit="10"/>
<path d="M98.7256 157.247L143.483 183.088" stroke="white" stroke-width="1.0631" stroke-miterlimit="10"/>
<path d="M95.9639 162.031L140.721 187.872" stroke="white" stroke-width="1.0631" stroke-miterlimit="10"/>
<path d="M116.934 42.273L161.68 68.1075" stroke="white" stroke-width="1.0631" stroke-miterlimit="10"/>
<path d="M114.165 47.0673L158.912 72.9017" stroke="white" stroke-width="1.0631" stroke-miterlimit="10"/>
</svg>
