<svg width="72" height="73" viewBox="0 0 72 73" fill="none" xmlns="http://www.w3.org/2000/svg">
<rect y="0.0488281" width="72" height="72" rx="36" fill="#71C6A2"/>
<path d="M35.6801 35.7291C38.1864 35.7291 40.59 34.7335 42.3623 32.9613C44.1345 31.189 45.1301 28.7854 45.1301 26.2791C45.1301 23.7728 44.1345 21.3692 42.3623 19.5969C40.59 17.8247 38.1864 16.8291 35.6801 16.8291C33.1738 16.8291 30.7702 17.8247 28.9979 19.5969C27.2257 21.3692 26.2301 23.7728 26.2301 26.2791C26.2301 28.7854 27.2257 31.189 28.9979 32.9613C30.7702 34.7335 33.1738 35.7291 35.6801 35.7291ZM35.6801 40.4541C26.2112 40.4541 18.5 46.8045 18.5 54.6291C18.5 55.1583 18.9158 55.5741 19.445 55.5741H51.9152C52.4444 55.5741 52.8602 55.1583 52.8602 54.6291C52.8602 46.8045 45.149 40.4541 35.6801 40.4541Z" fill="white"/>
</svg>
