<svg width="80" height="80" viewBox="0 0 80 80" fill="none" xmlns="http://www.w3.org/2000/svg">
<rect width="80" height="80" rx="40" fill="#ECFDE8"/>
<path d="M40.25 47.5V51" stroke="black" stroke-width="2" stroke-linecap="round" stroke-linejoin="round"/>
<path d="M31.917 56.6667H48.5837V55.0001C48.5837 53.1667 47.0837 51.6667 45.2503 51.6667H35.2503C33.417 51.6667 31.917 53.1667 31.917 55.0001V56.6667Z" stroke="black" stroke-width="2" stroke-miterlimit="10"/>
<path d="M30.2497 56.6666H50.2497M39.9997 46.6666C33.5497 46.6666 28.333 41.4499 28.333 34.9999V29.9999C28.333 26.3166 31.3163 23.3333 34.9997 23.3333H44.9997C48.683 23.3333 51.6663 26.3166 51.6663 29.9999V34.9999C51.6663 41.4499 46.4497 46.6666 39.9997 46.6666Z" stroke="black" stroke-width="2" stroke-linecap="round" stroke-linejoin="round"/>
<path d="M29.1171 39.4167C27.8671 39.0167 26.7671 38.2833 25.9004 37.4167C24.4004 35.75 23.4004 33.75 23.4004 31.4167C23.4004 29.0833 25.2337 27.25 27.5671 27.25H28.6504C28.3171 28.0167 28.1504 28.8667 28.1504 29.75V34.75C28.1504 36.4167 28.5004 37.9833 29.1171 39.4167ZM50.8837 39.4167C52.1337 39.0167 53.2337 38.2833 54.1004 37.4167C55.6004 35.75 56.6004 33.75 56.6004 31.4167C56.6004 29.0833 54.7671 27.25 52.4337 27.25H51.3504C51.6837 28.0167 51.8504 28.8667 51.8504 29.75V34.75C51.8504 36.4167 51.5004 37.9833 50.8837 39.4167Z" stroke="black" stroke-width="2" stroke-linecap="round" stroke-linejoin="round"/>
</svg>
