<svg width="314" height="186" viewBox="0 0 314 186" fill="none" xmlns="http://www.w3.org/2000/svg">
<g clip-path="url(#clip0_306_3333)">
<path d="M72.4766 120.079C74.1389 119.634 75.5563 118.546 76.4167 117.056C77.2772 115.565 77.5104 113.794 77.065 112.132C76.6196 110.47 75.532 109.052 74.0416 108.192C72.5512 107.331 70.78 107.098 69.1176 107.544C67.4553 107.989 66.038 109.076 65.1775 110.567C64.317 112.057 64.0838 113.829 64.5292 115.491C64.9747 117.153 66.0622 118.571 67.5526 119.431C69.043 120.292 70.8142 120.525 72.4766 120.079ZM73.3163 123.213C67.0359 124.896 63.0499 130.478 64.4405 135.668C64.5346 136.019 64.8843 136.221 65.2353 136.127L86.7717 130.356C87.1227 130.262 87.3246 129.913 87.2305 129.562C85.8399 124.372 79.5967 121.53 73.3163 123.213Z" fill="#FCFF78"/>
<rect x="35.0463" y="98.5349" width="61.3799" height="61.3799" rx="30.69" transform="rotate(-15 35.0463 98.5349)" stroke="white" stroke-width="1.05"/>
<path d="M116.403 93.3342L289.304 47.0056" stroke="#EDF9FF" stroke-width="1.8" stroke-miterlimit="10"/>
<path d="M120.026 106.857L292.927 60.5285" stroke="#EDF9FF" stroke-width="1.8" stroke-miterlimit="10"/>
<path d="M123.65 120.38L296.551 74.0515" stroke="#EDF9FF" stroke-width="1.8" stroke-miterlimit="10"/>
</g>
<rect x="0.642991" y="83.976" width="321.974" height="104.206" rx="19.475" transform="rotate(-15 0.642991 83.976)" stroke="white" stroke-width="1.05"/>
<defs>
<clipPath id="clip0_306_3333">
<rect y="83.6048" width="323.024" height="105.256" rx="20" transform="rotate(-15 0 83.6048)" fill="white"/>
</clipPath>
</defs>
</svg>
