<svg width="78" height="30" viewBox="0 0 78 30" fill="none" xmlns="http://www.w3.org/2000/svg">
<path d="M31.0207 22.8027L26.4646 11.1205H30.3431L31.7683 15.2093C32.4381 17.1875 32.8197 18.4258 32.9132 18.9242C33.0534 18.2077 33.4661 16.9694 34.1515 15.2093L35.7169 11.1205H39.4552L34.572 22.8027H31.0207ZM42.0114 9.29811C41.4351 9.29811 40.9444 9.10341 40.5394 8.71401C40.15 8.30903 39.9553 7.81838 39.9553 7.24206C39.9553 6.66574 40.15 6.18288 40.5394 5.79347C40.9444 5.40407 41.4351 5.20936 42.0114 5.20936C42.5721 5.20936 43.0472 5.40407 43.4366 5.79347C43.8416 6.18288 44.0441 6.66574 44.0441 7.24206C44.0441 7.81838 43.8416 8.30903 43.4366 8.71401C43.0472 9.10341 42.5721 9.29811 42.0114 9.29811ZM40.2357 22.8027V11.1205H43.8338V22.8027H40.2357ZM51.2527 23.1064C49.4926 23.1064 48.044 22.5301 46.9069 21.3775C45.7699 20.2092 45.2013 18.7295 45.2013 16.9382C45.2013 15.1158 45.7543 13.6283 46.8602 12.4757C47.9817 11.323 49.4225 10.7467 51.1826 10.7467C53.0206 10.7467 54.4692 11.3074 55.5283 12.4289C56.6031 13.5504 57.1405 15.0613 57.1405 16.9616V17.8728L48.6592 17.9195C48.8617 19.4304 49.7496 20.1859 51.3228 20.1859C52.0081 20.1859 52.5767 20.0691 53.0284 19.8354C53.4801 19.6018 53.7682 19.2747 53.8928 18.8541H57.1872C56.9691 20.1469 56.3227 21.1827 55.248 21.9616C54.1888 22.7248 52.857 23.1064 51.2527 23.1064ZM51.206 13.6672C49.8041 13.6672 48.9708 14.3448 48.706 15.6999H53.5657C53.5657 15.0769 53.3477 14.5862 52.9115 14.228C52.491 13.8542 51.9225 13.6672 51.206 13.6672ZM60.6172 22.8027L56.8555 11.1205H60.6406L61.7153 14.9289C62.0113 16.0192 62.2527 17.1252 62.4396 18.2466C62.5954 17.3121 62.8757 16.2062 63.2807 14.9289L64.4723 11.1205H68.1639L69.262 14.9289C69.6514 16.2685 69.9162 17.3744 70.0564 18.2466C70.1654 17.6236 70.438 16.5177 70.8741 14.9289L71.9956 11.1205H75.804L71.7152 22.8027H68.3741L67.2527 19.0878C66.7231 17.3744 66.4038 16.1127 66.2947 15.3027C66.1545 16.0192 65.8041 17.3043 65.2433 19.1578L64.1218 22.8027H60.6172Z" fill="#3E45EB"/>
<ellipse cx="8.66861" cy="13.8226" rx="8.34439" ry="8.34439" fill="#C3C5FA"/>
<ellipse cx="19.5169" cy="24.6703" rx="4.17219" ry="4.17219" fill="#C3C5FA"/>
</svg>
