<svg width="1238" height="498" viewBox="0 0 1238 498" fill="none" xmlns="http://www.w3.org/2000/svg">
<g clip-path="url(#clip0_616_4354)">
<rect y="0.0488281" width="1238" height="497" rx="12" fill="#3E45EB"/>
<path d="M93.56 164.729H102.28V190.049H106.2V164.729H114.88V161.129H93.56V164.729ZM113.737 180.249C113.737 186.289 118.057 190.529 123.937 190.529C129.777 190.529 134.097 186.289 134.097 180.249C134.097 174.209 129.777 169.969 123.937 169.969C118.057 169.969 113.737 174.209 113.737 180.249ZM117.537 180.249C117.537 176.169 120.137 173.329 123.937 173.329C127.697 173.329 130.337 176.169 130.337 180.249C130.337 184.329 127.697 187.169 123.937 187.169C120.137 187.169 117.537 184.329 117.537 180.249ZM153.397 190.049H157.117L160.517 179.609C161.237 177.249 161.597 175.969 161.797 175.009C161.997 176.089 162.397 177.609 163.037 179.569L166.437 190.049H169.997L176.677 170.489H172.757L169.477 180.649C168.917 182.369 168.557 183.729 168.237 185.289C167.917 183.889 167.277 181.609 166.957 180.649L163.717 170.489H159.877L156.597 180.649C156.157 181.929 155.637 183.569 155.317 185.289C154.957 183.569 154.557 182.089 154.117 180.649L150.877 170.489H146.997L153.397 190.049ZM181.74 165.849C183.1 165.849 184.22 164.729 184.22 163.369C184.22 161.969 183.1 160.889 181.74 160.889C180.38 160.889 179.26 161.969 179.26 163.369C179.26 164.729 180.38 165.849 181.74 165.849ZM179.9 190.049H183.66V170.489H179.9V190.049ZM192.878 190.049V179.689C192.878 175.889 194.918 173.369 198.438 173.369C201.318 173.369 203.158 174.969 203.158 178.929V190.049H206.918V178.089C206.918 173.089 204.558 169.929 199.398 169.929C196.638 169.929 194.158 171.249 192.918 173.489L192.518 170.489H189.118V190.049H192.878ZM224.904 165.849C226.264 165.849 227.384 164.729 227.384 163.369C227.384 161.969 226.264 160.889 224.904 160.889C223.544 160.889 222.424 161.969 222.424 163.369C222.424 164.729 223.544 165.849 224.904 165.849ZM223.064 190.049H226.824V170.489H223.064V190.049ZM236.043 190.049V179.689C236.043 175.889 238.083 173.369 241.603 173.369C244.483 173.369 246.323 174.969 246.323 178.929V190.049H250.083V178.089C250.083 173.089 247.723 169.929 242.563 169.929C239.803 169.929 237.323 171.249 236.083 173.489L235.683 170.489H232.283V190.049H236.043ZM271.748 190.049V173.649H275.588V170.489H271.748V164.369H267.988V170.489H264.148V173.649H267.988V190.049H271.748ZM282.722 190.009V179.369C282.722 176.009 284.682 173.369 288.322 173.369C291.122 173.369 293.002 174.969 293.002 178.929V190.049H296.762V178.089C296.762 173.089 294.362 169.929 289.362 169.929C286.322 169.929 283.962 171.369 282.722 173.489V160.609H278.962V190.009H282.722ZM310.41 190.529C315.25 190.529 318.53 188.169 319.49 183.969H315.97C315.33 186.209 313.41 187.409 310.49 187.409C306.77 187.409 304.61 185.129 304.33 181.009L319.45 180.969V179.569C319.45 173.769 315.81 169.929 310.25 169.929C304.57 169.929 300.69 174.169 300.69 180.289C300.69 186.369 304.65 190.529 310.41 190.529ZM310.25 173.089C313.57 173.089 315.69 175.249 315.69 178.489H304.41C304.89 175.049 306.97 173.089 310.25 173.089ZM338.347 190.049V178.449C338.347 175.329 340.227 173.369 343.067 173.369C345.707 173.369 347.387 175.049 347.387 178.129V190.049H351.107V178.449C351.107 175.329 352.987 173.329 355.827 173.329C358.467 173.329 360.187 175.089 360.187 178.169V190.049H363.867V177.249C363.867 172.729 361.147 169.929 356.667 169.929C353.627 169.929 351.267 171.449 350.347 173.889C349.347 171.449 347.187 169.929 344.147 169.929C341.387 169.929 339.307 171.209 338.307 173.049L337.947 170.489H334.587V190.049H338.347ZM374.799 190.529C377.959 190.529 380.639 189.129 381.639 186.889L382.039 190.049H385.239V177.769C385.239 172.489 381.959 169.929 377.119 169.929C372.079 169.929 368.719 172.609 368.719 176.689H371.999C371.999 174.329 373.799 172.929 376.959 172.929C379.599 172.929 381.559 174.089 381.559 177.369V177.929L375.399 178.409C370.799 178.769 368.119 181.009 368.119 184.609C368.119 188.169 370.599 190.529 374.799 190.529ZM375.879 187.609C373.439 187.609 371.919 186.569 371.919 184.489C371.919 182.569 373.279 181.289 376.599 180.969L381.599 180.569V181.609C381.599 185.289 379.439 187.609 375.879 187.609ZM401.647 170.329C400.887 170.169 400.327 170.089 399.647 170.089C396.967 170.089 395.007 171.449 394.207 173.489L393.967 170.529H390.447V190.049H394.207V179.689C394.207 175.929 396.407 173.769 399.967 173.769H401.647V170.329ZM409.013 190.049V184.489L412.333 181.009L418.053 190.049H422.373L414.933 178.289L422.413 170.489H417.693L409.013 179.689V160.609H405.253V190.049H409.013ZM433.183 190.529C438.023 190.529 441.303 188.169 442.263 183.969H438.743C438.103 186.209 436.183 187.409 433.263 187.409C429.543 187.409 427.383 185.129 427.103 181.009L442.223 180.969V179.569C442.223 173.769 438.583 169.929 433.023 169.929C427.343 169.929 423.463 174.169 423.463 180.289C423.463 186.369 427.423 190.529 433.183 190.529ZM433.023 173.089C436.343 173.089 438.463 175.249 438.463 178.489H427.183C427.663 175.049 429.743 173.089 433.023 173.089ZM451.748 190.049V173.649H455.588V170.489H451.748V164.369H447.988V170.489H444.148V173.649H447.988V190.049H451.748ZM458.962 198.809H462.722V186.849C464.002 189.249 466.602 190.569 469.722 190.569C475.522 190.569 478.802 186.089 478.802 180.129C478.802 174.129 475.322 169.929 469.722 169.929C466.602 169.929 463.962 171.329 462.642 174.009L462.362 170.489H458.962V198.809ZM462.762 180.289C462.762 176.209 465.082 173.369 468.922 173.369C472.762 173.369 475.042 176.249 475.042 180.289C475.042 184.289 472.762 187.169 468.922 187.169C465.082 187.169 462.762 184.289 462.762 180.289ZM486.787 190.049V160.609H483.027V190.049H486.787ZM498.042 190.529C501.202 190.529 503.882 189.129 504.882 186.889L505.282 190.049H508.482V177.769C508.482 172.489 505.202 169.929 500.362 169.929C495.322 169.929 491.962 172.609 491.962 176.689H495.242C495.242 174.329 497.042 172.929 500.202 172.929C502.842 172.929 504.802 174.089 504.802 177.369V177.929L498.642 178.409C494.042 178.769 491.362 181.009 491.362 184.609C491.362 188.169 493.842 190.529 498.042 190.529ZM499.122 187.609C496.682 187.609 495.162 186.569 495.162 184.489C495.162 182.569 496.522 181.289 499.842 180.969L504.842 180.569V181.609C504.842 185.289 502.682 187.609 499.122 187.609ZM512.409 180.289C512.409 186.449 516.209 190.529 521.969 190.529C526.689 190.529 530.329 187.689 531.089 183.449H527.329C526.649 185.769 524.649 187.169 521.969 187.169C518.409 187.169 516.129 184.449 516.129 180.249C516.129 176.009 518.569 173.289 522.129 173.289C524.649 173.289 526.649 174.609 527.289 177.089H531.049C530.369 172.729 526.929 169.929 522.009 169.929C516.289 169.929 512.409 174.169 512.409 180.289ZM543.496 190.529C548.336 190.529 551.616 188.169 552.576 183.969H549.056C548.416 186.209 546.496 187.409 543.576 187.409C539.856 187.409 537.696 185.129 537.416 181.009L552.536 180.969V179.569C552.536 173.769 548.896 169.929 543.336 169.929C537.656 169.929 533.776 174.169 533.776 180.289C533.776 186.369 537.736 190.529 543.496 190.529ZM543.336 173.089C546.656 173.089 548.776 175.249 548.776 178.489H537.496C537.976 175.049 540.056 173.089 543.336 173.089ZM565.793 198.809C566.793 199.049 567.833 199.209 569.073 199.209C572.073 199.209 574.033 197.809 575.353 194.449L584.593 170.489H580.713L574.913 186.249L569.233 170.489H565.273L573.153 191.089L572.473 192.969C571.553 195.449 570.113 195.729 568.313 195.729H565.793V198.809ZM585.573 180.249C585.573 186.289 589.893 190.529 595.773 190.529C601.613 190.529 605.933 186.289 605.933 180.249C605.933 174.209 601.613 169.969 595.773 169.969C589.893 169.969 585.573 174.209 585.573 180.249ZM589.373 180.249C589.373 176.169 591.973 173.329 595.773 173.329C599.533 173.329 602.173 176.169 602.173 180.249C602.173 184.329 599.533 187.169 595.773 187.169C591.973 187.169 589.373 184.329 589.373 180.249ZM623.146 170.489V180.809C623.146 185.009 621.266 187.209 617.826 187.209C614.946 187.209 613.146 185.609 613.146 181.409V170.489H609.386V182.649C609.386 187.449 611.946 190.529 616.506 190.529C619.386 190.529 621.986 189.129 623.106 187.089L623.506 190.049H626.866V170.489H623.146ZM99.48 238.049V226.449C99.48 223.329 101.36 221.369 104.2 221.369C106.84 221.369 108.52 223.049 108.52 226.129V238.049H112.24V226.449C112.24 223.329 114.12 221.329 116.96 221.329C119.6 221.329 121.32 223.089 121.32 226.169V238.049H125V225.249C125 220.729 122.28 217.929 117.8 217.929C114.76 217.929 112.4 219.449 111.48 221.889C110.48 219.449 108.32 217.929 105.28 217.929C102.52 217.929 100.44 219.209 99.44 221.049L99.08 218.489H95.72V238.049H99.48ZM143.732 218.489V228.809C143.732 233.009 141.852 235.209 138.412 235.209C135.532 235.209 133.732 233.609 133.732 229.409V218.489H129.972V230.649C129.972 235.449 132.532 238.529 137.092 238.529C139.972 238.529 142.572 237.129 143.692 235.089L144.092 238.049H147.452V218.489H143.732ZM150.917 232.369C150.917 236.089 153.837 238.529 158.437 238.529C163.077 238.529 166.277 236.169 166.277 232.449C166.277 229.529 164.637 228.009 161.317 227.209L157.877 226.369C155.957 225.889 154.997 225.009 154.997 223.689C154.997 221.889 156.317 220.849 158.677 220.849C160.957 220.849 162.277 222.089 162.357 224.049H165.957C165.877 220.329 163.077 217.929 158.797 217.929C154.477 217.929 151.437 220.209 151.437 223.809C151.437 226.689 153.077 228.409 156.557 229.249L159.997 230.049C162.037 230.569 162.677 231.369 162.677 232.689C162.677 234.489 161.157 235.569 158.517 235.569C156.037 235.569 154.517 234.369 154.517 232.369H150.917ZM175.967 238.049V221.649H179.807V218.489H175.967V212.369H172.207V218.489H168.367V221.649H172.207V238.049H175.967ZM198.318 238.049H202.038L205.438 227.609C206.158 225.249 206.518 223.969 206.718 223.009C206.918 224.089 207.318 225.609 207.958 227.569L211.358 238.049H214.918L221.598 218.489H217.678L214.398 228.649C213.838 230.369 213.478 231.729 213.158 233.289C212.838 231.889 212.198 229.609 211.878 228.649L208.638 218.489H204.798L201.518 228.649C201.078 229.929 200.558 231.569 200.238 233.289C199.878 231.569 199.478 230.089 199.038 228.649L195.798 218.489H191.918L198.318 238.049ZM226.662 213.849C228.022 213.849 229.142 212.729 229.142 211.369C229.142 209.969 228.022 208.889 226.662 208.889C225.302 208.889 224.182 209.969 224.182 211.369C224.182 212.729 225.302 213.849 226.662 213.849ZM224.822 238.049H228.582V218.489H224.822V238.049ZM237.8 238.049V227.689C237.8 223.889 239.84 221.369 243.36 221.369C246.24 221.369 248.08 222.969 248.08 226.929V238.049H251.84V226.089C251.84 221.089 249.48 217.929 244.32 217.929C241.56 217.929 239.08 219.249 237.84 221.489L237.44 218.489H234.04V238.049H237.8ZM269.826 213.849C271.186 213.849 272.306 212.729 272.306 211.369C272.306 209.969 271.186 208.889 269.826 208.889C268.466 208.889 267.346 209.969 267.346 211.369C267.346 212.729 268.466 213.849 269.826 213.849ZM267.986 238.049H271.746V218.489H267.986V238.049ZM280.964 238.049V227.689C280.964 223.889 283.004 221.369 286.524 221.369C289.404 221.369 291.244 222.969 291.244 226.929V238.049H295.004V226.089C295.004 221.089 292.644 217.929 287.484 217.929C284.724 217.929 282.244 219.249 281.004 221.489L280.604 218.489H277.204V238.049H280.964ZM316.67 238.049V221.649H320.51V218.489H316.67V212.369H312.91V218.489H309.07V221.649H312.91V238.049H316.67ZM327.644 238.009V227.369C327.644 224.009 329.604 221.369 333.244 221.369C336.044 221.369 337.924 222.969 337.924 226.929V238.049H341.684V226.089C341.684 221.089 339.284 217.929 334.284 217.929C331.244 217.929 328.884 219.369 327.644 221.489V208.609H323.884V238.009H327.644ZM355.332 238.529C360.172 238.529 363.452 236.169 364.412 231.969H360.892C360.252 234.209 358.332 235.409 355.412 235.409C351.692 235.409 349.532 233.129 349.252 229.009L364.372 228.969V227.569C364.372 221.769 360.732 217.929 355.172 217.929C349.492 217.929 345.612 222.169 345.612 228.289C345.612 234.369 349.572 238.529 355.332 238.529ZM355.172 221.089C358.492 221.089 360.612 223.249 360.612 226.489H349.332C349.812 223.049 351.892 221.089 355.172 221.089ZM383.709 238.049H387.429L390.829 227.609C391.549 225.249 391.909 223.969 392.109 223.009C392.309 224.089 392.709 225.609 393.349 227.569L396.749 238.049H400.309L406.989 218.489H403.069L399.789 228.649C399.229 230.369 398.869 231.729 398.549 233.289C398.229 231.889 397.589 229.609 397.269 228.649L394.029 218.489H390.189L386.909 228.649C386.469 229.929 385.949 231.569 385.629 233.289C385.269 231.569 384.869 230.089 384.429 228.649L381.189 218.489H377.309L383.709 238.049ZM408.034 228.249C408.034 234.289 412.354 238.529 418.234 238.529C424.074 238.529 428.394 234.289 428.394 228.249C428.394 222.209 424.074 217.969 418.234 217.969C412.354 217.969 408.034 222.209 408.034 228.249ZM411.834 228.249C411.834 224.169 414.434 221.329 418.234 221.329C421.994 221.329 424.634 224.169 424.634 228.249C424.634 232.329 421.994 235.169 418.234 235.169C414.434 235.169 411.834 232.329 411.834 228.249ZM443.756 218.329C442.996 218.169 442.436 218.089 441.756 218.089C439.076 218.089 437.116 219.449 436.316 221.489L436.076 218.529H432.556V238.049H436.316V227.689C436.316 223.929 438.516 221.769 442.076 221.769H443.756V218.329ZM451.123 238.049V232.489L454.443 229.009L460.163 238.049H464.483L457.043 226.289L464.523 218.489H459.803L451.123 227.689V208.609H447.363V238.049H451.123ZM467.595 246.809H471.355V234.849C472.635 237.249 475.235 238.569 478.355 238.569C484.155 238.569 487.435 234.089 487.435 228.129C487.435 222.129 483.955 217.929 478.355 217.929C475.235 217.929 472.595 219.329 471.275 222.009L470.995 218.489H467.595V246.809ZM471.395 228.289C471.395 224.209 473.715 221.369 477.555 221.369C481.395 221.369 483.675 224.249 483.675 228.289C483.675 232.289 481.395 235.169 477.555 235.169C473.715 235.169 471.395 232.289 471.395 228.289ZM495.419 238.049V208.609H491.659V238.049H495.419ZM506.674 238.529C509.834 238.529 512.514 237.129 513.514 234.889L513.914 238.049H517.114V225.769C517.114 220.489 513.834 217.929 508.994 217.929C503.954 217.929 500.594 220.609 500.594 224.689H503.874C503.874 222.329 505.674 220.929 508.834 220.929C511.474 220.929 513.434 222.089 513.434 225.369V225.929L507.274 226.409C502.674 226.769 499.994 229.009 499.994 232.609C499.994 236.169 502.474 238.529 506.674 238.529ZM507.754 235.609C505.314 235.609 503.794 234.569 503.794 232.489C503.794 230.569 505.154 229.289 508.474 228.969L513.474 228.569V229.609C513.474 233.289 511.314 235.609 507.754 235.609ZM521.042 228.289C521.042 234.449 524.842 238.529 530.602 238.529C535.322 238.529 538.962 235.689 539.722 231.449H535.962C535.282 233.769 533.282 235.169 530.602 235.169C527.042 235.169 524.762 232.449 524.762 228.249C524.762 224.009 527.202 221.289 530.762 221.289C533.282 221.289 535.282 222.609 535.922 225.089H539.682C539.002 220.729 535.562 217.929 530.642 217.929C524.922 217.929 521.042 222.169 521.042 228.289ZM552.129 238.529C556.969 238.529 560.249 236.169 561.209 231.969H557.689C557.049 234.209 555.129 235.409 552.209 235.409C548.489 235.409 546.329 233.129 546.049 229.009L561.169 228.969V227.569C561.169 221.769 557.529 217.929 551.969 217.929C546.289 217.929 542.409 222.169 542.409 228.289C542.409 234.369 546.369 238.529 552.129 238.529ZM551.969 221.089C555.289 221.089 557.409 223.249 557.409 226.489H546.129C546.609 223.049 548.689 221.089 551.969 221.089Z" fill="white"/>
<rect x="93" y="319.049" width="165" height="56" rx="8" fill="white"/>
<path d="M120.068 353.049V348.473H123.028L125.188 353.049H126.932L124.58 348.169C126.02 347.705 126.82 346.553 126.82 344.953C126.82 342.793 125.348 341.481 122.868 341.481H118.5V353.049H120.068ZM120.068 342.889H122.868C124.308 342.889 125.172 343.625 125.172 344.969C125.172 346.297 124.34 347.081 122.884 347.081H120.068V342.889ZM131.527 353.241C133.463 353.241 134.775 352.297 135.159 350.617H133.751C133.495 351.513 132.727 351.993 131.559 351.993C130.071 351.993 129.207 351.081 129.095 349.433L135.142 349.417V348.857C135.142 346.537 133.687 345.001 131.463 345.001C129.191 345.001 127.639 346.697 127.639 349.145C127.639 351.577 129.223 353.241 131.527 353.241ZM131.463 346.265C132.791 346.265 133.639 347.129 133.639 348.425H129.127C129.319 347.049 130.151 346.265 131.463 346.265ZM136.31 349.081C136.31 351.465 137.638 353.257 139.942 353.257C141.19 353.257 142.23 352.729 142.758 351.769V356.553H144.246V345.225H142.902L142.774 346.633C142.262 345.561 141.19 345.001 139.958 345.001C137.718 345.001 136.31 346.681 136.31 349.081ZM137.83 349.145C137.83 347.529 138.726 346.377 140.262 346.377C141.798 346.377 142.742 347.513 142.742 349.145C142.742 350.745 141.798 351.897 140.262 351.897C138.726 351.897 137.83 350.745 137.83 349.145ZM151.824 345.225V349.353C151.824 351.033 151.072 351.913 149.696 351.913C148.544 351.913 147.824 351.273 147.824 349.593V345.225H146.32V350.089C146.32 352.009 147.344 353.241 149.168 353.241C150.32 353.241 151.36 352.681 151.808 351.865L151.968 353.049H153.312V345.225H151.824ZM158.714 353.241C160.65 353.241 161.962 352.297 162.346 350.617H160.938C160.682 351.513 159.914 351.993 158.746 351.993C157.258 351.993 156.394 351.081 156.282 349.433L162.33 349.417V348.857C162.33 346.537 160.874 345.001 158.65 345.001C156.378 345.001 154.826 346.697 154.826 349.145C154.826 351.577 156.41 353.241 158.714 353.241ZM158.65 346.265C159.978 346.265 160.826 347.129 160.826 348.425H156.314C156.506 347.049 157.338 346.265 158.65 346.265ZM163.37 350.777C163.37 352.265 164.538 353.241 166.378 353.241C168.234 353.241 169.514 352.297 169.514 350.809C169.514 349.641 168.858 349.033 167.53 348.713L166.154 348.377C165.386 348.185 165.002 347.833 165.002 347.305C165.002 346.585 165.53 346.169 166.474 346.169C167.386 346.169 167.914 346.665 167.946 347.449H169.386C169.354 345.961 168.234 345.001 166.522 345.001C164.794 345.001 163.578 345.913 163.578 347.353C163.578 348.505 164.234 349.193 165.626 349.529L167.002 349.849C167.818 350.057 168.074 350.377 168.074 350.905C168.074 351.625 167.466 352.057 166.41 352.057C165.418 352.057 164.81 351.577 164.81 350.777H163.37ZM173.39 353.049V346.489H174.926V345.225H173.39V342.777H171.886V345.225H170.35V346.489H171.886V353.049H173.39ZM182.939 353.241C184.203 353.241 185.275 352.681 185.675 351.785L185.835 353.049H187.115V348.137C187.115 346.025 185.803 345.001 183.867 345.001C181.851 345.001 180.507 346.073 180.507 347.705H181.819C181.819 346.761 182.539 346.201 183.803 346.201C184.859 346.201 185.643 346.665 185.643 347.977V348.201L183.179 348.393C181.339 348.537 180.267 349.433 180.267 350.873C180.267 352.297 181.259 353.241 182.939 353.241ZM183.371 352.073C182.395 352.073 181.787 351.657 181.787 350.825C181.787 350.057 182.331 349.545 183.659 349.417L185.659 349.257V349.673C185.659 351.145 184.795 352.073 183.371 352.073ZM196.708 353.241C197.956 353.241 199.012 352.697 199.524 351.625L199.652 353.049H200.996V341.273H199.508V346.489C198.98 345.529 197.972 345.001 196.772 345.001C194.452 345.001 193.06 346.761 193.06 349.161C193.06 351.545 194.436 353.241 196.708 353.241ZM197.012 351.881C195.476 351.881 194.58 350.729 194.58 349.113C194.58 347.513 195.476 346.361 197.012 346.361C198.548 346.361 199.492 347.513 199.492 349.113C199.492 350.745 198.548 351.881 197.012 351.881ZM206.542 353.241C208.478 353.241 209.79 352.297 210.174 350.617H208.766C208.51 351.513 207.742 351.993 206.574 351.993C205.086 351.993 204.222 351.081 204.11 349.433L210.158 349.417V348.857C210.158 346.537 208.702 345.001 206.478 345.001C204.206 345.001 202.654 346.697 202.654 349.145C202.654 351.577 204.238 353.241 206.542 353.241ZM206.478 346.265C207.806 346.265 208.654 347.129 208.654 348.425H204.142C204.334 347.049 205.166 346.265 206.478 346.265ZM213.342 353.049V348.409C213.342 347.161 214.094 346.377 215.23 346.377C216.286 346.377 216.958 347.049 216.958 348.281V353.049H218.446V348.409C218.446 347.161 219.198 346.361 220.334 346.361C221.39 346.361 222.078 347.065 222.078 348.297V353.049H223.55V347.929C223.55 346.121 222.462 345.001 220.67 345.001C219.454 345.001 218.51 345.609 218.142 346.585C217.742 345.609 216.878 345.001 215.662 345.001C214.558 345.001 213.726 345.513 213.326 346.249L213.182 345.225H211.838V353.049H213.342ZM225.123 349.129C225.123 351.545 226.851 353.241 229.203 353.241C231.539 353.241 233.267 351.545 233.267 349.129C233.267 346.713 231.539 345.017 229.203 345.017C226.851 345.017 225.123 346.713 225.123 349.129ZM226.643 349.129C226.643 347.497 227.683 346.361 229.203 346.361C230.707 346.361 231.763 347.497 231.763 349.129C231.763 350.761 230.707 351.897 229.203 351.897C227.683 351.897 226.643 350.761 226.643 349.129Z" fill="#3E45EB"/>
<path d="M1159.15 175.747H1077.39V526.048H1159.15V175.747Z" fill="#263238" stroke="#263238" stroke-miterlimit="10"/>
<path d="M1184.1 175.747H1102.34V526.048H1184.1V175.747Z" fill="white" stroke="#263238" stroke-miterlimit="10"/>
<path d="M974.966 297.101H893.203V526.048H974.966V297.101Z" fill="#263238" stroke="#263238" stroke-miterlimit="10"/>
<path d="M999.92 297.101H918.157V526.048H999.92V297.101Z" fill="white" stroke="#263238" stroke-miterlimit="10"/>
<path d="M783.894 365.954H702.131V526.036H783.894V365.954Z" fill="#263238" stroke="#263238" stroke-miterlimit="10"/>
<path d="M808.848 365.954H727.085V526.036H808.848V365.954Z" fill="white" stroke="#263238" stroke-miterlimit="10"/>
<path d="M842.59 115.426C842.59 115.426 838.062 94.4168 822.246 89.0826C806.43 83.7485 802.66 94.4168 798.143 100.393C793.626 106.369 786.845 97.3698 777.052 100.393C767.259 103.416 771.017 111.691 764.995 114.703C758.972 117.714 748.42 110.933 741.65 116.208C734.881 121.484 733.363 126.001 733.363 126.001H876.486C876.486 126.001 853.889 104.922 842.59 115.426Z" fill="white" stroke="#263238" stroke-miterlimit="10"/>
<path d="M1099.42 224.841C1099.42 224.841 1094.9 203.749 1079.08 198.485C1063.25 193.221 1059.49 203.749 1054.97 209.784C1050.46 215.818 1043.67 206.772 1033.88 209.784C1024.09 212.795 1027.86 221.082 1021.82 224.094C1015.79 227.105 1005.25 220.323 998.481 225.599C991.711 230.875 990.193 235.392 990.193 235.392H1133.32C1133.32 235.392 1110.72 214.301 1099.42 224.841Z" fill="white" stroke="#263238" stroke-miterlimit="10"/>
<path d="M1134.43 116.418H1124.96V174.965H1134.43V116.418Z" fill="#FFC100" stroke="#263238" stroke-miterlimit="10"/>
<path d="M1110.14 115.624C1098.65 115.624 1089.63 112.053 1083.29 105.026C1071.88 92.3034 1073.83 72.9628 1073.95 72.1458C1074.05 71.2854 1074.46 70.4907 1075.11 69.9152C1075.75 69.3397 1076.59 69.0241 1077.46 69.0294H1108.43V76.0326H1084.41C1083.93 76.0315 1083.46 76.1292 1083.02 76.3196C1082.58 76.51 1082.18 76.789 1081.85 77.1393C1081.52 77.4896 1081.27 77.9037 1081.11 78.3558C1080.95 78.808 1080.88 79.2886 1080.91 79.7676C1081.34 85.6737 1083 94.1943 1088.56 100.38C1093.48 105.843 1100.74 108.621 1110.14 108.621V115.624Z" fill="#FFC100" stroke="#263238" stroke-miterlimit="10"/>
<path d="M1149.26 115.624C1160.75 115.624 1169.77 112.053 1176.11 105.026C1187.52 92.3034 1185.57 72.9628 1185.45 72.1458C1185.35 71.2854 1184.94 70.4907 1184.29 69.9152C1183.65 69.3397 1182.81 69.0241 1181.94 69.0294H1150.98V76.0326H1174.99C1175.47 76.0315 1175.94 76.1292 1176.38 76.3196C1176.82 76.51 1177.22 76.789 1177.55 77.1393C1177.88 77.4896 1178.13 77.9037 1178.29 78.3558C1178.45 78.808 1178.52 79.2886 1178.49 79.7676C1178.07 85.6737 1176.41 94.1943 1170.84 100.38C1165.93 105.843 1158.67 108.621 1149.27 108.621L1149.26 115.624Z" fill="#FFC100" stroke="#263238" stroke-miterlimit="10"/>
<path d="M1103.25 62.2012H1155.78V102.341C1155.78 109.272 1153.02 115.92 1148.12 120.821C1143.22 125.722 1136.57 128.475 1129.64 128.475H1129.4C1122.47 128.475 1115.82 125.722 1110.92 120.821C1106.02 115.92 1103.26 109.272 1103.26 102.341V62.2012H1103.25Z" fill="#FFC100" stroke="#263238" stroke-miterlimit="10"/>
<path d="M1150.67 62.2012V101.069C1150.67 114.55 1139.78 125.58 1126.06 126.327C1126.56 126.327 1127.06 126.327 1127.56 126.327C1142 126.327 1153.7 115.006 1153.7 101.034V62.2012H1150.67Z" fill="#263238"/>
<path d="M1108.48 62.2012V100.847C1108.48 114.247 1118.13 125.195 1130.29 125.954C1129.85 125.954 1129.41 125.954 1128.95 125.954C1116.17 125.954 1105.81 114.69 1105.81 100.801V62.2012H1108.48Z" fill="white"/>
<path d="M1155.75 62.2012H1103.25V73.6981H1155.75V62.2012Z" fill="#FFC100" stroke="#263238" stroke-miterlimit="10"/>
<path d="M1134.94 141.175H1124.82C1123.45 141.175 1122.33 142.288 1122.33 143.661V154.224C1122.33 155.597 1123.45 156.71 1124.82 156.71H1134.94C1136.31 156.71 1137.43 155.597 1137.43 154.224V143.661C1137.43 142.288 1136.31 141.175 1134.94 141.175Z" fill="#FFC100" stroke="#263238" stroke-miterlimit="10"/>
<path d="M1159.93 175.654C1159.28 173.876 1158.1 172.34 1156.54 171.254C1154.99 170.169 1153.14 169.586 1151.25 169.585H1108.5C1106.61 169.586 1104.76 170.169 1103.21 171.254C1101.65 172.34 1100.47 173.876 1099.82 175.654H1159.93Z" fill="#FFC100" stroke="#263238" stroke-miterlimit="10"/>
<path d="M1112.57 67.9212C1112.57 67.4793 1112.44 67.0466 1112.2 66.6782C1111.95 66.3098 1111.6 66.0223 1111.2 65.8521C1110.79 65.6819 1110.34 65.6368 1109.9 65.7224C1109.47 65.8081 1109.07 66.0207 1108.76 66.3331C1108.45 66.6456 1108.24 67.0439 1108.15 67.4775C1108.06 67.911 1108.11 68.3602 1108.28 68.7681C1108.45 69.1759 1108.74 69.5239 1109.11 69.768C1109.47 70.0121 1109.91 70.1412 1110.35 70.1389C1110.94 70.1389 1111.5 69.9052 1111.92 69.4893C1112.33 69.0734 1112.57 68.5093 1112.57 67.9212Z" fill="#FFC100" stroke="#263238" stroke-miterlimit="10"/>
<path d="M1122.33 67.9212C1122.34 67.4798 1122.21 67.0476 1121.96 66.6795C1121.72 66.3113 1121.37 66.0238 1120.97 65.8532C1120.56 65.6827 1120.11 65.6369 1119.68 65.7216C1119.24 65.8063 1118.85 66.0177 1118.53 66.329C1118.22 66.6403 1118.01 67.0375 1117.92 67.4703C1117.83 67.9031 1117.88 68.3519 1118.04 68.76C1118.21 69.168 1118.5 69.5169 1118.87 69.7624C1119.23 70.0078 1119.66 70.1389 1120.11 70.1389C1120.69 70.1389 1121.26 69.9056 1121.68 69.4901C1122.1 69.0745 1122.33 68.5104 1122.33 67.9212Z" fill="#FFC100" stroke="#263238" stroke-miterlimit="10"/>
<path d="M1132.09 67.9208C1132.09 67.4822 1131.96 67.0534 1131.72 66.6887C1131.48 66.324 1131.13 66.0398 1130.72 65.8719C1130.32 65.7041 1129.87 65.6602 1129.44 65.7457C1129.01 65.8313 1128.62 66.0425 1128.31 66.3527C1128 66.6628 1127.79 67.058 1127.7 67.4882C1127.62 67.9184 1127.66 68.3643 1127.83 68.7695C1127.99 69.1747 1128.28 69.5211 1128.64 69.7648C1129.01 70.0084 1129.44 70.1385 1129.88 70.1385C1130.46 70.1385 1131.03 69.9049 1131.44 69.489C1131.86 69.0731 1132.09 68.509 1132.09 67.9208Z" fill="#FFC100" stroke="#263238" stroke-miterlimit="10"/>
<path d="M1141.87 67.9208C1141.87 67.4822 1141.74 67.0534 1141.5 66.6887C1141.26 66.324 1140.91 66.0398 1140.51 65.8719C1140.1 65.7041 1139.65 65.6602 1139.22 65.7457C1138.79 65.8313 1138.4 66.0425 1138.09 66.3527C1137.78 66.6628 1137.57 67.058 1137.48 67.4882C1137.4 67.9184 1137.44 68.3643 1137.61 68.7695C1137.78 69.1747 1138.06 69.5211 1138.43 69.7648C1138.79 70.0084 1139.22 70.1385 1139.66 70.1385C1140.25 70.1385 1140.81 69.9049 1141.23 69.489C1141.64 69.0731 1141.87 68.509 1141.87 67.9208Z" fill="#FFC100" stroke="#263238" stroke-miterlimit="10"/>
<path d="M1151.63 67.9212C1151.63 67.4793 1151.5 67.0466 1151.26 66.6782C1151.02 66.3098 1150.67 66.0223 1150.26 65.8521C1149.85 65.6819 1149.4 65.6368 1148.97 65.7224C1148.54 65.8081 1148.14 66.0207 1147.83 66.3331C1147.51 66.6456 1147.3 67.0439 1147.22 67.4775C1147.13 67.911 1147.17 68.3602 1147.34 68.7681C1147.51 69.1759 1147.8 69.5239 1148.17 69.768C1148.54 70.0121 1148.97 70.1412 1149.41 70.1389C1150 70.1389 1150.57 69.9052 1150.98 69.4893C1151.4 69.0734 1151.63 68.5093 1151.63 67.9212Z" fill="#FFC100" stroke="#263238" stroke-miterlimit="10"/>
<path d="M1145.83 100.868C1148.15 91.8203 1142.7 82.6039 1133.65 80.2826C1124.6 77.9612 1115.38 83.4139 1113.06 92.4616C1110.74 101.509 1116.19 110.726 1125.24 113.047C1134.29 115.368 1143.51 109.916 1145.83 100.868Z" fill="#263238" stroke="#263238" stroke-miterlimit="10"/>
<path d="M1132.77 105.656H1129.27V92.6887C1128 93.8736 1126.48 94.7625 1124.82 95.2916V92.1635C1125.93 91.7904 1126.96 91.2254 1127.87 90.4944C1128.86 89.7691 1129.61 88.7712 1130.04 87.623H1132.83L1132.77 105.656Z" fill="white"/>
<path d="M1130.18 31.0488V51.3932" stroke="#263238" stroke-miterlimit="10"/>
<path d="M1042.87 92.9219H1063.22" stroke="#263238" stroke-miterlimit="10"/>
<path d="M1087.63 133.787L1090.75 130.659" stroke="#263238" stroke-miterlimit="10"/>
<path d="M1076.36 145.05L1084.6 136.809" stroke="#263238" stroke-miterlimit="10"/>
<path d="M1183.87 139.833L1174.7 130.659" stroke="#263238" stroke-miterlimit="10"/>
<path d="M1189.08 145.05L1186.45 142.423" stroke="#263238" stroke-miterlimit="10"/>
<path d="M1088.08 56.7622L1090.75 59.4351" stroke="#263238" stroke-miterlimit="10"/>
<path d="M1076.36 45.0439L1085.31 53.9964" stroke="#263238" stroke-miterlimit="10"/>
<path d="M1189.08 45.0439L1174.7 59.4356" stroke="#263238" stroke-miterlimit="10"/>
<path d="M1210.98 92.9219H1214.94" stroke="#263238" stroke-miterlimit="10"/>
<path d="M1194.6 92.9219H1207.03" stroke="#263238" stroke-miterlimit="10"/>
<path d="M766.432 446.673C771.328 446.673 773.632 449.265 773.632 452.817C773.632 456.705 771.088 459.201 767.248 459.201C763.504 459.201 761.008 456.897 761.008 452.865H754.96C754.96 460.449 760.288 464.673 767.152 464.673C774.256 464.673 779.872 460.113 779.872 452.913C779.872 446.721 775.696 442.785 770.32 441.729L778.864 433.857V428.961H756.592V434.385H771.184L762.16 442.689V446.673H766.432Z" fill="black"/>
<path d="M973.544 394.001V388.289H958.952L965.288 382.865C970.616 378.305 973.304 374.609 973.304 369.713C973.304 362.609 968.648 358.337 961.16 358.337C953.72 358.337 948.824 363.329 948.776 371.009H954.872C954.92 366.497 957.32 363.809 961.16 363.809C964.856 363.809 967.016 366.065 967.016 370.049C967.016 373.409 965.432 375.713 960.68 379.745L949.208 389.441V394.049L973.544 394.001Z" fill="black"/>
<path d="M1143.31 248.481V278.049H1149.22V242.961H1135.63V248.481H1143.31Z" fill="black"/>
</g>
<defs>
<clipPath id="clip0_616_4354">
<rect y="0.0488281" width="1238" height="497" rx="12" fill="white"/>
</clipPath>
</defs>
</svg>
