<svg width="139" height="233" viewBox="0 0 139 233" fill="none" xmlns="http://www.w3.org/2000/svg">
<path d="M39.5427 93.909L39.1121 93.8589L39.0015 94.2781L6.52436 217.371L6.21065 218.56L7.26507 217.928L43.5255 196.17L64.2121 226.686L65.1601 228.084L65.1259 226.395L62.5069 97.0145L62.4981 96.5784L62.0647 96.528L39.5427 93.909Z" fill="#FFD119" stroke="#604D05"/>
<mask id="mask0_306_3332" style="mask-type:luminance" maskUnits="userSpaceOnUse" x="5" y="93" width="61" height="137">
<path d="M39.5427 93.909L39.1121 93.8589L39.0015 94.2781L6.52436 217.371L6.21065 218.56L7.26507 217.928L43.5255 196.17L64.2121 226.686L65.1601 228.084L65.1259 226.395L62.5069 97.0145L62.4981 96.5784L62.0647 96.528L39.5427 93.909Z" fill="white" stroke="white"/>
</mask>
<g mask="url(#mask0_306_3332)">
<path d="M14.374 206.925L14.0603 208.114L15.1147 207.481L44.9854 189.553L58.9594 210.157L59.9074 211.555L59.8731 209.867L57.6723 101.409L57.6634 100.973L57.2301 100.922L43.2107 99.2937L42.7801 99.2437L42.6695 99.6629L14.374 206.925Z" fill="#FFD119" stroke="#604D05"/>
<path opacity="0.3" d="M62.5016 127.107L63.1208 127.242L63.1079 126.609L62.5063 97.0292L62.4975 96.5934L62.0645 96.5427L39.5572 93.9091L39.1263 93.8586L39.0156 94.2781L32.0683 120.608L32.0204 120.789L32.1039 120.957C32.6742 122.107 33.2037 123.345 33.741 124.602C33.7804 124.695 33.8199 124.787 33.8595 124.88C34.435 126.225 35.0231 127.584 35.6726 128.834C36.9603 131.311 38.5523 133.488 40.929 134.262L40.9302 134.262C42.5465 134.783 44.2587 134.526 45.9684 133.909C47.677 133.292 49.4429 132.292 51.1892 131.258C51.4842 131.083 51.7786 130.908 52.0723 130.732C53.5327 129.861 54.9771 128.999 56.4 128.313C58.1067 127.49 59.7248 126.952 61.2286 126.95C61.6568 126.963 62.0829 127.016 62.5016 127.107Z" fill="#10100C" stroke="#604D05"/>
</g>
<path d="M84.6998 95.1414L84.5236 94.7453L84.1065 94.8637L62.2961 101.055L61.8765 101.175L61.9375 101.606L80.0579 229.732L80.2548 231.125L80.9811 229.921L102.009 195.038L135.774 212.098L137.027 212.732L136.456 211.449L84.6998 95.1414Z" fill="#FFD119" stroke="#604D05"/>
<mask id="mask1_306_3332" style="mask-type:luminance" maskUnits="userSpaceOnUse" x="61" y="94" width="78" height="139">
<path d="M84.6998 95.1414L84.5236 94.7453L84.1065 94.8637L62.2961 101.055L61.8765 101.175L61.9375 101.606L80.0579 229.732L80.2548 231.125L80.9811 229.921L102.009 195.038L135.774 212.098L137.027 212.732L136.456 211.449L84.6998 95.1414Z" fill="white" stroke="white"/>
</mask>
<g mask="url(#mask1_306_3332)">
<path d="M67.7679 104.613L67.3481 104.732L67.4092 105.164L82.9912 215.339L83.1883 216.732L83.9145 215.527L100.152 188.583L125.656 201.476L126.91 202.109L126.339 200.826L81.9404 101.04L81.7641 100.644L81.3471 100.762L67.7679 104.613Z" fill="#FFD119" stroke="#604D05"/>
<path opacity="0.3" d="M84.7066 95.1412L84.5302 94.7453L84.1133 94.8637L62.3029 101.055L61.8831 101.175L61.9444 101.607L65.4144 126.065L65.4754 126.495H65.9095H66.2322C67.7387 126.495 69.362 127.032 71.0747 127.853C72.5011 128.536 73.9495 129.395 75.4134 130.264C75.7067 130.438 76.0006 130.612 76.295 130.786C78.044 131.815 79.8117 132.81 81.5194 133.423C83.2279 134.037 84.9371 134.292 86.5462 133.77L86.5478 133.77C88.9909 132.969 90.606 130.685 91.9152 128.112C92.5618 126.841 93.1502 125.464 93.7295 124.109L93.7669 124.022C94.3611 122.632 94.947 121.267 95.5882 120.026L95.6986 119.812L95.6008 119.593L84.7066 95.1412Z" fill="#10100C" stroke="#604D05"/>
</g>
<path d="M45.9047 125.803L45.9067 125.804C47.5157 126.317 49.2241 126.056 50.9315 125.437C52.6381 124.819 54.4047 123.821 56.1526 122.789C56.4411 122.618 56.729 122.447 57.0163 122.276C58.4852 121.402 59.9388 120.537 61.3701 119.85C63.082 119.029 64.7048 118.491 66.2111 118.491C67.717 118.491 69.338 119.031 71.0484 119.855C72.4706 120.541 73.9146 121.403 75.3745 122.274C75.6696 122.45 75.9654 122.627 76.2618 122.802C78.009 123.837 79.7759 124.837 81.4852 125.453C83.1957 126.07 84.9085 126.327 86.5248 125.803C88.1837 125.266 89.453 124.046 90.4983 122.532C91.5423 121.021 92.3953 119.169 93.2013 117.305C93.3633 116.93 93.5232 116.555 93.6826 116.182C94.3233 114.68 94.9534 113.203 95.6581 111.873C96.5383 110.211 97.5032 108.843 98.6816 107.986C99.8607 107.128 101.464 106.626 103.321 106.293C104.826 106.023 106.453 105.871 108.104 105.717C108.488 105.681 108.874 105.645 109.26 105.608C111.285 105.41 113.31 105.167 115.066 104.647C116.822 104.126 118.369 103.311 119.377 101.926C120.385 100.541 120.684 98.823 120.637 96.9966C120.59 95.1716 120.195 93.1764 119.757 91.1929C119.676 90.8228 119.592 90.4533 119.51 90.0849C119.144 88.4613 118.784 86.8599 118.576 85.3342C118.32 83.4619 118.304 81.771 118.759 80.3651C119.198 79.0177 120.192 77.7027 121.497 76.3656C122.514 75.323 123.687 74.2995 124.885 73.2547C125.222 72.9604 125.562 72.6644 125.9 72.3658C127.425 71.0195 128.924 69.625 130.041 68.1475C131.16 66.6679 131.93 65.0615 131.93 63.293C131.93 61.5179 131.162 59.9063 130.044 58.4226C128.928 56.9411 127.43 55.5444 125.905 54.1974C125.557 53.8898 125.208 53.5851 124.861 53.2822C123.674 52.2465 122.512 51.2325 121.502 50.2004C120.196 48.8657 119.201 47.5545 118.758 46.2123C118.304 44.8187 118.323 43.1377 118.582 41.2715C118.791 39.7627 119.151 38.178 119.516 36.5689C119.602 36.1881 119.689 35.806 119.774 35.4232C120.214 33.4403 120.61 31.4428 120.655 29.6124C120.7 27.7801 120.396 26.0551 119.377 24.6594C118.358 23.2643 116.804 22.4416 115.042 21.9165C113.28 21.3917 111.252 21.1475 109.226 20.9508C108.824 20.9118 108.423 20.8746 108.023 20.8376C106.389 20.6865 104.782 20.538 103.295 20.2745C101.443 19.9462 99.8491 19.45 98.6817 18.6003C97.5146 17.7509 96.5548 16.3869 95.6757 14.7259C94.9758 13.4034 94.3475 11.9345 93.708 10.4395C93.5448 10.0579 93.3809 9.67465 93.2148 9.29165C92.4056 7.42508 91.5482 5.57093 90.5012 4.05736C89.453 2.54219 88.1821 1.31973 86.525 0.782802C84.916 0.259455 83.2068 0.513494 81.4983 1.12681C79.7906 1.73987 78.0228 2.73461 76.2738 3.76485C75.9783 3.93894 75.6833 4.11401 75.389 4.28871C73.9262 5.15691 72.4788 6.01601 71.0535 6.69932C69.3407 7.52044 67.7175 8.05793 66.2111 8.05793C64.7048 8.05793 63.084 7.52051 61.3743 6.69947C59.9538 6.01727 58.5117 5.1599 57.0538 4.29309C56.7577 4.11699 56.4608 3.94051 56.1634 3.76503C54.4171 2.73474 52.6511 1.7399 50.9424 1.12679C49.2326 0.513246 47.5205 0.25963 45.9047 0.782763C44.2458 1.31966 42.977 2.5403 41.9323 4.05363C40.8888 5.56509 40.0365 7.41672 39.231 9.28124C39.07 9.65382 38.911 10.0267 38.7526 10.3981C38.1112 11.9021 37.4805 13.3813 36.7746 14.7133C35.8941 16.3749 34.9284 17.743 33.7482 18.6C32.5673 19.4577 30.9619 19.9602 29.1032 20.2932C27.5968 20.563 25.9697 20.7148 24.318 20.8688C23.9332 20.9047 23.5471 20.9407 23.1608 20.9783C21.1345 21.1759 19.1087 21.4187 17.3534 21.9389C15.597 22.4595 14.0513 23.2748 13.0449 24.6604C12.0386 26.0458 11.7414 27.7634 11.7895 29.5896C11.8375 31.4145 12.2329 33.4097 12.6705 35.3931C12.7513 35.7594 12.8336 36.1252 12.9156 36.4899C13.2814 38.1173 13.6423 39.7225 13.8505 41.2516C14.1055 43.1242 14.1203 44.8153 13.6635 46.2213L13.6635 46.2215C13.2263 47.5686 12.2338 48.8835 10.9296 50.2206C9.91189 51.264 8.73829 52.2884 7.54008 53.3342C7.20396 53.6276 6.86591 53.9226 6.52881 54.2203C5.0041 55.5665 3.50507 56.961 2.38797 58.4386C1.26937 59.9181 0.5 61.5245 0.5 63.293C0.5 65.0617 1.26946 66.6663 2.38819 68.1437C3.50533 69.619 5.00444 71.011 6.529 72.3558C6.85914 72.647 7.1902 72.9358 7.51946 73.223C8.72474 74.2744 9.90594 75.3047 10.9293 76.3558C12.2331 77.6949 13.2258 79.0147 13.6632 80.371L13.6636 80.3722C14.12 81.7756 14.102 83.4619 13.8425 85.33C13.6322 86.8435 13.2711 88.4314 12.9047 90.0428C12.8191 90.4196 12.7331 90.7976 12.6487 91.1763C12.2073 93.1568 11.8099 95.151 11.7647 96.9787C11.7194 98.8085 12.0248 100.531 13.0459 101.927C14.0664 103.322 15.6216 104.144 17.3858 104.67C19.1488 105.194 21.1783 105.439 23.205 105.635C23.6069 105.674 24.0084 105.711 24.4083 105.748C26.0432 105.899 27.6503 106.048 29.1371 106.312C30.9889 106.64 32.5821 107.136 33.7475 107.985C34.9129 108.835 35.8714 110.199 36.7497 111.86C37.4474 113.18 38.074 114.645 38.7119 116.137C38.8764 116.521 39.0417 116.908 39.2092 117.294C40.0185 119.161 40.8764 121.015 41.9244 122.529C42.9735 124.044 44.2459 125.266 45.9047 125.803Z" fill="#FFD119" stroke="#604D05"/>
<path opacity="0.6" d="M84.2952 119.039L84.2955 119.039C85.7891 118.553 86.9279 117.454 87.8621 116.1C88.795 114.747 89.556 113.093 90.2735 111.431C90.4171 111.099 90.5588 110.766 90.6999 110.435C91.2711 109.095 91.8319 107.78 92.4593 106.595C93.2422 105.117 94.0975 103.908 95.1382 103.151C96.1799 102.395 97.5997 101.948 99.2521 101.651C100.592 101.41 102.04 101.274 103.512 101.136C103.853 101.104 104.196 101.072 104.539 101.038C106.344 100.861 108.152 100.644 109.721 100.179C111.291 99.7134 112.682 98.9831 113.589 97.7372C114.496 96.4911 114.763 94.9485 114.72 93.3168C114.678 91.6865 114.325 89.9053 113.935 88.1393C113.863 87.8127 113.79 87.4868 113.717 87.1619C113.391 85.7127 113.071 84.2857 112.886 82.9262C112.659 81.2614 112.648 79.765 113.051 78.5242C113.444 77.3343 114.327 76.1691 115.491 74.9795C116.397 74.0541 117.439 73.1462 118.505 72.2178C118.808 71.9531 119.114 71.6867 119.419 71.4178C120.78 70.2182 122.12 68.9727 123.12 67.6515C124.121 66.3282 124.814 64.8855 124.814 63.293C124.814 61.6944 124.124 60.2467 123.126 58.9189C122.13 57.5933 120.794 56.3449 119.437 55.1433C119.127 54.8688 118.817 54.5969 118.508 54.3268C117.452 53.4025 116.419 52.4989 115.52 51.5781C114.358 50.388 113.475 49.2226 113.08 48.032C112.677 46.7916 112.691 45.3011 112.919 43.6438C113.105 42.2982 113.425 40.8872 113.75 39.4522C113.825 39.1197 113.901 38.7858 113.975 38.4512C114.367 36.6903 114.721 34.9116 114.762 33.2766C114.803 31.6394 114.532 30.0879 113.62 28.8215C112.706 27.5536 111.31 26.8099 109.732 26.3381C108.157 25.8667 106.343 25.65 104.537 25.4772C104.172 25.4422 103.806 25.409 103.443 25.376C101.993 25.2442 100.57 25.1149 99.2536 24.8837C97.6055 24.5944 96.1958 24.1559 95.1685 23.406C94.1406 22.6556 93.2915 21.4487 92.5106 19.971C91.8904 18.7975 91.3334 17.4947 90.7655 16.166C90.6188 15.8229 90.4713 15.478 90.3219 15.1331C89.6011 13.4701 88.8352 11.8135 87.8983 10.4595C86.9602 9.10384 85.8183 8.00318 84.3249 7.51757L84.3245 7.51746C82.8749 7.0472 81.3385 7.27838 79.8106 7.82743C78.2836 8.37616 76.7043 9.26518 75.1461 10.1831C74.8826 10.3383 74.6198 10.4943 74.3576 10.6499C73.054 11.4236 71.7667 12.1877 70.4993 12.7954C68.9763 13.5256 67.5397 14.0002 66.2113 14.0002C64.8829 14.0002 63.4463 13.5256 61.9234 12.7954C60.6554 12.1873 59.3674 11.4227 58.0634 10.6485C57.8021 10.4934 57.5401 10.3378 57.2775 10.1831C55.7198 9.26523 54.1412 8.37621 52.6152 7.82747C51.0884 7.27843 49.5532 7.04714 48.1052 7.51752L48.1051 7.51757C46.6117 8.00319 45.4719 9.10255 44.5365 10.4567C43.6024 11.8091 42.8397 13.4637 42.1208 15.1252C41.9759 15.46 41.8329 15.795 41.6905 16.1284C41.1193 17.466 40.5587 18.7787 39.932 19.9613C39.1487 21.4393 38.2938 22.6494 37.2547 23.4055C36.215 24.1622 34.7963 24.6087 33.1443 24.9058C31.8043 25.1467 30.3565 25.2826 28.884 25.4207C28.5426 25.4528 28.1998 25.4849 27.8568 25.5186C26.052 25.6955 24.2425 25.9128 22.6729 26.3779C21.1024 26.8433 19.7118 27.5736 18.8044 28.8195C17.8968 30.0656 17.6307 31.6082 17.6733 33.24C17.7158 34.8703 18.069 36.6514 18.4589 38.4175C18.5315 38.7461 18.6053 39.0741 18.6788 39.4009C19.0045 40.8482 19.3251 42.2731 19.5106 43.6308C19.738 45.2953 19.7509 46.7915 19.3496 48.0322C18.9547 49.2223 18.0706 50.3876 16.9061 51.5771C16.0013 52.5015 14.9607 53.4084 13.8967 54.3356C13.5917 54.6014 13.2848 54.8689 12.9786 55.139C11.6184 56.3386 10.2787 57.5841 9.27968 58.9053C8.27917 60.2286 7.58691 61.6713 7.58691 63.2637C7.58691 64.8565 8.28137 66.2993 9.28415 67.6225C10.2854 68.9436 11.6279 70.1891 12.9899 71.3886C13.2914 71.6542 13.5936 71.9174 13.894 72.1788C14.9641 73.1106 16.0105 74.0216 16.9183 74.95C18.0817 76.1399 18.9618 77.3049 19.3493 78.4942C19.7508 79.7347 19.7358 81.2277 19.5056 82.8884C19.3189 84.2347 18.9984 85.6467 18.6726 87.0821C18.5966 87.4169 18.5203 87.7529 18.4454 88.0898C18.053 89.8529 17.6986 91.6329 17.6578 93.2663C17.617 94.9017 17.8884 96.4499 18.8043 97.7078C19.7203 98.9657 21.1167 99.7041 22.6927 100.174C24.2674 100.643 26.0795 100.861 27.8848 101.036C28.2434 101.071 28.6015 101.104 28.9581 101.137C30.4143 101.272 31.8435 101.404 33.1661 101.638C34.8139 101.93 36.2247 102.371 37.2545 103.122C38.2841 103.872 39.1345 105.079 39.9164 106.557C40.5382 107.732 41.0964 109.036 41.6656 110.367C41.8117 110.708 41.9585 111.051 42.1072 111.394C42.8285 113.057 43.5946 114.714 44.5316 116.068C45.4697 117.423 46.6116 118.524 48.1049 119.01C49.5491 119.48 51.0802 119.251 52.6031 118.705C54.125 118.159 55.6997 117.273 57.2542 116.359C57.5144 116.206 57.774 116.052 58.0329 115.899C59.3364 115.127 60.6242 114.364 61.893 113.757C63.4144 113.03 64.8513 112.556 66.182 112.556C67.5123 112.556 68.9498 113.031 70.4731 113.761C71.7418 114.37 73.03 115.134 74.3343 115.909C74.5954 116.064 74.8571 116.219 75.1194 116.374C76.6772 117.291 78.2557 118.18 79.7822 118.729C81.3096 119.278 82.8456 119.509 84.2952 119.039Z" fill="#FFD119" stroke="#604D05"/>
<path d="M45.9047 125.803L45.9067 125.804C47.5157 126.317 49.2241 126.056 50.9315 125.437C52.6381 124.819 54.4047 123.821 56.1526 122.789C56.4411 122.618 56.729 122.447 57.0163 122.276C58.4852 121.402 59.9388 120.537 61.3701 119.85C63.082 119.029 64.7048 118.491 66.2111 118.491C67.717 118.491 69.338 119.031 71.0484 119.855C72.4706 120.541 73.9146 121.403 75.3745 122.274C75.6696 122.45 75.9654 122.627 76.2618 122.802C78.009 123.837 79.7759 124.837 81.4852 125.453C83.1957 126.07 84.9085 126.327 86.5248 125.803C88.1837 125.266 89.453 124.046 90.4983 122.532C91.5423 121.021 92.3953 119.169 93.2013 117.305C93.3633 116.93 93.5232 116.555 93.6826 116.182C94.3233 114.68 94.9534 113.203 95.6581 111.873C96.5383 110.211 97.5032 108.843 98.6816 107.986C99.8607 107.128 101.464 106.626 103.321 106.293C104.826 106.023 106.453 105.871 108.104 105.717C108.488 105.681 108.874 105.645 109.26 105.608C111.285 105.41 113.31 105.167 115.066 104.647C116.822 104.126 118.369 103.311 119.377 101.926C120.385 100.541 120.684 98.823 120.637 96.9966C120.59 95.1716 120.195 93.1764 119.757 91.1929C119.676 90.8228 119.592 90.4533 119.51 90.0849C119.144 88.4613 118.784 86.8599 118.576 85.3342C118.32 83.4619 118.304 81.771 118.759 80.3651C119.198 79.0177 120.192 77.7027 121.497 76.3656C122.514 75.323 123.687 74.2995 124.885 73.2547C125.222 72.9604 125.562 72.6644 125.9 72.3658C127.425 71.0195 128.924 69.625 130.041 68.1475C131.16 66.6679 131.93 65.0615 131.93 63.293C131.93 61.5179 131.162 59.9063 130.044 58.4226C128.928 56.9411 127.43 55.5444 125.905 54.1974C125.557 53.8898 125.208 53.5851 124.861 53.2822C123.674 52.2465 122.512 51.2325 121.502 50.2004C120.196 48.8657 119.201 47.5545 118.758 46.2123C118.304 44.8187 118.323 43.1377 118.582 41.2715C118.791 39.7627 119.151 38.178 119.516 36.5689C119.602 36.1881 119.689 35.806 119.774 35.4232C120.214 33.4403 120.61 31.4428 120.655 29.6124C120.7 27.7801 120.396 26.0551 119.377 24.6594C118.358 23.2643 116.804 22.4416 115.042 21.9165C113.28 21.3917 111.252 21.1475 109.226 20.9508C108.824 20.9118 108.423 20.8746 108.023 20.8376C106.389 20.6865 104.782 20.538 103.295 20.2745C101.443 19.9462 99.8491 19.45 98.6817 18.6003C97.5146 17.7509 96.5548 16.3869 95.6757 14.7259C94.9758 13.4034 94.3475 11.9345 93.708 10.4395C93.5448 10.0579 93.3809 9.67465 93.2148 9.29165C92.4056 7.42508 91.5482 5.57093 90.5012 4.05736C89.453 2.54219 88.1821 1.31973 86.525 0.782802C84.916 0.259455 83.2068 0.513494 81.4983 1.12681C79.7906 1.73987 78.0228 2.73461 76.2738 3.76485C75.9783 3.93894 75.6833 4.11401 75.389 4.28871C73.9262 5.15691 72.4788 6.01601 71.0535 6.69932C69.3407 7.52044 67.7175 8.05793 66.2111 8.05793C64.7048 8.05793 63.084 7.52051 61.3743 6.69947C59.9538 6.01727 58.5117 5.1599 57.0538 4.29309C56.7577 4.11699 56.4608 3.94051 56.1634 3.76503C54.4171 2.73474 52.6511 1.7399 50.9424 1.12679C49.2326 0.513246 47.5205 0.25963 45.9047 0.782763C44.2458 1.31966 42.977 2.5403 41.9323 4.05363C40.8888 5.56509 40.0365 7.41672 39.231 9.28124C39.07 9.65382 38.911 10.0267 38.7526 10.3981C38.1112 11.9021 37.4805 13.3813 36.7746 14.7133C35.8941 16.3749 34.9284 17.743 33.7482 18.6C32.5673 19.4577 30.9619 19.9602 29.1032 20.2932C27.5968 20.563 25.9697 20.7148 24.318 20.8688C23.9332 20.9047 23.5471 20.9407 23.1608 20.9783C21.1345 21.1759 19.1087 21.4187 17.3534 21.9389C15.597 22.4595 14.0513 23.2748 13.0449 24.6604C12.0386 26.0458 11.7414 27.7634 11.7895 29.5896C11.8375 31.4145 12.2329 33.4097 12.6705 35.3931C12.7513 35.7594 12.8336 36.1252 12.9156 36.4899C13.2814 38.1173 13.6423 39.7225 13.8505 41.2516C14.1055 43.1242 14.1203 44.8153 13.6635 46.2213L13.6635 46.2215C13.2263 47.5686 12.2338 48.8835 10.9296 50.2206C9.91189 51.264 8.73829 52.2884 7.54008 53.3342C7.20396 53.6276 6.86591 53.9226 6.52881 54.2203C5.0041 55.5665 3.50507 56.961 2.38797 58.4386C1.26937 59.9181 0.5 61.5245 0.5 63.293C0.5 65.0617 1.26946 66.6663 2.38819 68.1437C3.50533 69.619 5.00444 71.011 6.529 72.3558C6.85914 72.647 7.1902 72.9358 7.51946 73.223C8.72474 74.2744 9.90594 75.3047 10.9293 76.3558C12.2331 77.6949 13.2258 79.0147 13.6632 80.371L13.6636 80.3722C14.12 81.7756 14.102 83.4619 13.8425 85.33C13.6322 86.8435 13.2711 88.4314 12.9047 90.0428C12.8191 90.4196 12.7331 90.7976 12.6487 91.1763C12.2073 93.1568 11.8099 95.151 11.7647 96.9787C11.7194 98.8085 12.0248 100.531 13.0459 101.927C14.0664 103.322 15.6216 104.144 17.3858 104.67C19.1488 105.194 21.1783 105.439 23.205 105.635C23.6069 105.674 24.0084 105.711 24.4083 105.748C26.0432 105.899 27.6503 106.048 29.1371 106.312C30.9889 106.64 32.5821 107.136 33.7475 107.985C34.9129 108.835 35.8714 110.199 36.7497 111.86C37.4474 113.18 38.074 114.645 38.7119 116.137C38.8764 116.521 39.0417 116.908 39.2092 117.294C40.0185 119.161 40.8764 121.015 41.9244 122.529C42.9735 124.044 44.2459 125.266 45.9047 125.803Z" stroke="#604D05"/>
<path d="M66.2117 111.712C92.9688 111.712 114.66 90.0207 114.66 63.2637C114.66 36.5066 92.9688 14.8157 66.2117 14.8157C39.4546 14.8157 17.7637 36.5066 17.7637 63.2637C17.7637 90.0207 39.4546 111.712 66.2117 111.712Z" fill="#FFD119"/>
<path d="M42.9034 40.1022L42.483 40.309L42.6619 40.7419L47.3351 52.0469L47.5354 52.5316L48.01 52.3084L57.4504 47.8678V84.2586H47.7972H47.2972V84.7586V98.2351V98.7351H47.7972H88.4175H88.9175V98.2351V84.7293V84.2293H88.4175H79.4758V27.2431V26.7431H78.9758H60.8995H60.6664L60.5165 26.9218C56.8322 31.313 53.8698 33.894 51.1233 35.7289C48.9126 37.2059 46.839 38.2031 44.5996 39.2802C44.0458 39.5465 43.482 39.8177 42.9034 40.1022Z" fill="#373826" stroke="#604D05"/>
</svg>
