<svg width="187" height="72" viewBox="0 0 187 72" fill="none" xmlns="http://www.w3.org/2000/svg">
<path d="M75.2459 57L62.782 28.1451H71.8311L80.0835 49.0891H78.2054L86.7424 28.1451H95.2224L82.6446 57H75.2459ZM96.519 57V28.1451H105.113V57H96.519ZM96.1775 23.4213V15.3966H105.397V23.4213H96.1775ZM124.942 57.626C119.934 57.626 116.026 56.2791 113.218 53.5852C110.41 50.8913 109.006 47.2299 109.006 42.601C109.006 39.6036 109.595 36.9856 110.771 34.747C111.985 32.5084 113.654 30.7631 115.779 29.511C117.942 28.221 120.465 27.576 123.349 27.576C126.194 27.576 128.566 28.183 130.463 29.3972C132.398 30.6113 133.84 32.3187 134.788 34.5193C135.775 36.682 136.268 39.2052 136.268 42.0888V44.0807H116.064V39.8123H130.007L129.04 40.609C129.04 38.2187 128.547 36.4164 127.56 35.2023C126.612 33.9502 125.227 33.3242 123.405 33.3242C121.395 33.3242 119.839 34.064 118.739 35.5438C117.676 37.0235 117.145 39.1483 117.145 41.918V42.8286C117.145 45.6364 117.828 47.7232 119.194 49.0891C120.598 50.455 122.609 51.138 125.227 51.138C126.782 51.138 128.243 50.9482 129.609 50.5688C131.013 50.1515 132.341 49.5064 133.593 48.6338L135.983 54.3251C134.541 55.3875 132.872 56.2032 130.975 56.7723C129.116 57.3415 127.105 57.626 124.942 57.626ZM147.651 57L136.041 28.1451H144.863L152.489 48.9183H151.009L158.692 28.1451H164.384L172.01 48.9183H170.815L178.327 28.1451H186.637L175.083 57H167.685L159.489 35.7145H162.961L155.05 57H147.651Z" fill="white"/>
<circle cx="20.3261" cy="32.5214" r="20.3261" fill="white"/>
<circle cx="46.749" cy="58.9453" r="10.163" fill="white"/>
</svg>
