<svg width="169" height="158" viewBox="0 0 169 158" fill="none" xmlns="http://www.w3.org/2000/svg">
<path d="M6.79004 36.4628L129.62 3.55051C132.79 2.70114 136.048 4.58228 136.898 7.75215L165.448 114.305C166.298 117.475 164.417 120.733 161.247 121.582L38.4166 154.495C35.2467 155.344 31.9885 153.463 31.1391 150.293L2.5884 43.7402C1.73903 40.5704 3.62017 37.3121 6.79004 36.4628Z" fill="#3E45EB" stroke="#3E45EB" stroke-width="0.318466"/>
<path d="M6.88809 36.8295L6.8877 36.8296C5.46494 37.2148 4.25254 38.1476 3.51556 39.4241C2.77857 40.7006 2.57695 42.2169 2.95477 43.6416L2.95488 43.642L31.502 150.181C31.8838 151.606 32.816 152.821 34.0936 153.559C35.3712 154.296 36.8895 154.496 38.3145 154.114L161.145 121.202C162.57 120.82 163.785 119.888 164.522 118.611C165.26 117.333 165.46 115.815 165.078 114.39L136.531 7.85047L136.531 7.85007C136.146 6.42731 135.213 5.21492 133.936 4.47793C132.66 3.74094 131.143 3.53932 129.719 3.91715L129.718 3.91725L6.88809 36.8295ZM161.427 122.257L38.5974 155.169C36.8963 155.621 35.0855 155.381 33.5612 154.501C32.037 153.621 30.9236 152.173 30.4646 150.473L1.91756 43.9346C1.46556 42.2337 1.70583 40.4229 2.58583 38.8987C3.46582 37.3745 4.91386 36.261 6.61294 35.802L129.443 2.88977C131.144 2.43397 132.957 2.67259 134.482 3.55312C136.007 4.43366 137.12 5.88397 137.575 7.58503L166.123 114.124C166.578 115.825 166.34 117.638 165.459 119.163C164.579 120.688 163.128 121.801 161.427 122.257Z" fill="white" stroke="#3E45EB" stroke-width="0.318466"/>
<path d="M139.598 17.2998L139.598 17.2997L139.592 17.3013L5.00187 53.3646C4.86383 53.4016 4.71671 53.3822 4.59295 53.3107C4.4692 53.2393 4.37891 53.1216 4.34192 52.9836L1.91365 43.9211C1.46165 42.2202 1.70193 40.4094 2.58193 38.8852C3.46193 37.361 4.90996 36.2475 6.60904 35.7885L129.439 2.87628C131.14 2.42048 132.953 2.6591 134.478 3.53964C136.003 4.42017 137.116 5.87049 137.572 7.57155L140 16.6341C140.019 16.7044 140.023 16.7776 140.013 16.8495C140.003 16.9213 139.978 16.9904 139.941 17.0526C139.903 17.1148 139.854 17.1687 139.795 17.2112C139.736 17.2537 139.669 17.2838 139.598 17.2998ZM5.17509 52.0371L5.21594 52.1915L2.95448 43.6417L5.17509 52.0371Z" fill="white" stroke="#3E45EB" stroke-width="0.318466"/>
<path d="M105.516 18.2709C106.027 20.1746 104.897 22.1314 102.993 22.6415C101.089 23.1516 99.1326 22.0218 98.6225 20.1181C98.1124 18.2144 99.2422 16.2577 101.146 15.7476C103.05 15.2375 105.006 16.3672 105.516 18.2709Z" fill="#3E45EB" stroke="#3E45EB" stroke-width="0.318466"/>
<path d="M103.174 23.3156C102.359 23.534 101.498 23.5058 100.699 23.2346C99.8994 22.9633 99.1987 22.4612 98.685 21.7917C98.1713 21.1223 97.8677 20.3155 97.8125 19.4734C97.7573 18.6314 97.9531 17.7919 98.375 17.0611C98.7969 16.3303 99.4261 15.741 100.183 15.3678C100.94 14.9946 101.79 14.8541 102.627 14.9643C103.464 15.0744 104.249 15.4302 104.883 15.9866C105.518 16.543 105.973 17.275 106.191 18.0901C106.484 19.1831 106.331 20.3477 105.765 21.3277C105.199 22.3077 104.267 23.0228 103.174 23.3156ZM101.245 16.1141C100.635 16.2774 100.088 16.6176 99.6724 17.0918C99.2565 17.566 98.9907 18.1528 98.9083 18.7782C98.826 19.4035 98.931 20.0392 99.2099 20.6048C99.4889 21.1705 99.9293 21.6407 100.476 21.9561C101.022 22.2714 101.649 22.4178 102.279 22.3765C102.908 22.3352 103.511 22.1083 104.011 21.7243C104.512 21.3404 104.887 20.8167 105.09 20.2194C105.292 19.6222 105.313 18.9782 105.15 18.369C105.042 17.9645 104.855 17.5853 104.6 17.2531C104.345 16.9209 104.027 16.6421 103.664 16.4327C103.302 16.2233 102.901 16.0874 102.486 16.0328C102.071 15.9781 101.649 16.0057 101.245 16.1141Z" fill="white" stroke="#3E45EB" stroke-width="0.318466"/>
<path d="M116.939 15.2095L116.939 15.2101C117.184 16.1243 117.056 17.0984 116.583 17.918C116.11 18.7377 115.33 19.3357 114.416 19.5807L114.415 19.5808C113.731 19.7671 113.006 19.7457 112.333 19.5195C111.661 19.2932 111.07 18.8723 110.637 18.3101C110.204 17.7478 109.948 17.0696 109.901 16.3615C109.854 15.6534 110.018 14.9472 110.373 14.3326C110.728 13.718 111.257 13.2227 111.894 12.9094C112.531 12.5961 113.246 12.479 113.949 12.5729C114.653 12.6669 115.313 12.9676 115.845 13.437C116.377 13.9064 116.758 14.5234 116.939 15.2095Z" fill="#3E45EB" stroke="#3E45EB" stroke-width="0.318466"/>
<path d="M112.667 13.0533L112.667 13.0535C112.057 13.2168 111.51 13.557 111.094 14.0312C110.678 14.5054 110.413 15.0922 110.33 15.7175C110.248 16.3429 110.353 16.9786 110.632 17.5442C110.911 18.1099 111.351 18.5801 111.897 18.8955C112.444 19.2108 113.071 19.3571 113.7 19.3159C114.33 19.2746 114.933 19.0477 115.433 18.6637C115.934 18.2798 116.309 17.7561 116.512 17.1588C116.714 16.5616 116.735 15.9176 116.572 15.3084L116.572 15.3077C116.35 14.4931 115.815 13.7993 115.083 13.3771C114.352 12.9549 113.484 12.8385 112.667 13.0533ZM114.596 20.2551C113.781 20.4734 112.919 20.4452 112.12 20.174C111.321 19.9027 110.621 19.4006 110.107 18.7311C109.593 18.0617 109.29 17.2549 109.234 16.4128C109.179 15.5708 109.375 14.7313 109.797 14.0005C110.219 13.2697 110.848 12.6804 111.605 12.3072C112.362 11.9339 113.212 11.7935 114.049 11.9037C114.885 12.0138 115.671 12.3696 116.305 12.926C116.939 13.4823 117.395 14.2143 117.613 15.0293C117.902 16.1222 117.747 17.2851 117.182 18.2642C116.617 19.2433 115.687 19.959 114.596 20.2551Z" fill="white" stroke="#3E45EB" stroke-width="0.318466"/>
<path d="M128.348 12.153C128.859 14.0567 127.729 16.0135 125.825 16.5236C123.921 17.0337 121.965 15.9039 121.455 14.0002C120.944 12.0965 122.074 10.1398 123.978 9.62971C125.882 9.11962 127.838 10.2493 128.348 12.153Z" fill="#3E45EB" stroke="#3E45EB" stroke-width="0.318466"/>
<path d="M126.006 17.198C125.191 17.4164 124.33 17.3882 123.531 17.117C122.731 16.8457 122.031 16.3436 121.517 15.6741C121.003 15.0046 120.7 14.1978 120.644 13.3558C120.589 12.5137 120.785 11.6742 121.207 10.9434C121.629 10.2126 122.258 9.62338 123.015 9.25015C123.772 8.87692 124.622 8.7365 125.459 8.84664C126.296 8.95679 127.081 9.31255 127.715 9.86894C128.35 10.4253 128.805 11.1573 129.023 11.9725C129.316 13.0655 129.163 14.2301 128.597 15.2101C128.031 16.19 127.099 16.9051 126.006 17.198ZM124.077 9.9965C123.467 10.1597 122.92 10.4999 122.504 10.9741C122.089 11.4483 121.823 12.0352 121.74 12.6605C121.658 13.2858 121.763 13.9215 122.042 14.4872C122.321 15.0529 122.761 15.5231 123.308 15.8384C123.854 16.1538 124.481 16.3001 125.111 16.2589C125.74 16.2176 126.343 15.9906 126.843 15.6067C127.344 15.2227 127.719 14.699 127.922 14.1018C128.124 13.5046 128.145 12.8606 127.982 12.2514C127.874 11.8469 127.687 11.4677 127.432 11.1355C127.177 10.8032 126.859 10.5244 126.496 10.3151C126.134 10.1057 125.733 9.9698 125.318 9.91514C124.903 9.86048 124.481 9.88811 124.077 9.9965Z" fill="white" stroke="#3E45EB" stroke-width="0.318466"/>
<path d="M37.8732 84.9851L37.7886 85.0078L37.7625 85.0914L33.1922 99.6979L22.5839 60.107C22.3274 59.1499 22.4617 58.1302 22.9571 57.272C23.4525 56.4139 24.2686 55.7877 25.2257 55.5313L124.86 28.8343C125.334 28.7073 125.828 28.675 126.315 28.739C126.801 28.803 127.27 28.9623 127.695 29.2076C128.12 29.4529 128.492 29.7795 128.791 30.1687C129.09 30.558 129.309 31.0022 129.436 31.4761L135.716 54.9142C135.968 55.87 135.832 56.8869 135.336 57.7421C134.84 58.5973 134.026 59.2212 133.071 59.477L37.8732 84.9851ZM33.1574 95.4041L33.2985 95.9307L33.463 95.4109L37.0062 84.2173L132.821 58.5439C133.499 58.3621 134.078 57.9191 134.431 57.3118C134.784 56.7044 134.882 55.982 134.704 55.3024L134.704 55.3016L128.395 31.7551C128.304 31.4179 128.149 31.1018 127.936 30.8248C127.724 30.5478 127.459 30.3154 127.156 30.1409C126.854 29.9663 126.52 29.853 126.174 29.8075C125.828 29.7619 125.476 29.7849 125.139 29.8753L25.5046 56.5722C24.8236 56.7547 24.243 57.2003 23.8904 57.8109C23.5379 58.4214 23.4424 59.1471 23.6248 59.8281L33.1574 95.4041Z" fill="white" stroke="#3E45EB" stroke-width="0.318466"/>
<path d="M152.686 118.359L141.408 108.039L141.344 107.98L141.259 108.003L46.0888 133.504C45.1317 133.76 44.1119 133.626 43.2538 133.13C42.3957 132.635 41.7695 131.819 41.513 130.862L35.2255 107.396C34.969 106.439 35.1033 105.419 35.5987 104.561C36.0941 103.703 36.9101 103.077 37.8672 102.82L137.502 76.1234C138.459 75.867 139.479 76.0012 140.337 76.4967C141.195 76.9921 141.821 77.8081 142.077 78.7652L152.686 118.359ZM150.29 114.711L150.692 115.079L150.551 114.553L141.036 79.0441C140.854 78.3631 140.408 77.7825 139.798 77.43C139.187 77.0774 138.462 76.9819 137.781 77.1644L38.1462 103.861C37.4652 104.044 36.8845 104.489 36.532 105.1C36.1795 105.711 36.084 106.436 36.2664 107.117L42.554 130.583C42.6444 130.92 42.8002 131.236 43.0128 131.513C43.2253 131.79 43.4903 132.022 43.7926 132.197C44.095 132.372 44.4287 132.485 44.7748 132.53C45.1209 132.576 45.4726 132.553 45.8098 132.463L141.624 106.789L150.29 114.711Z" fill="white" stroke="#3E45EB" stroke-width="0.318466"/>
<path d="M53.2177 64.2715C54.5281 69.1619 51.6259 74.1886 46.7355 75.499C41.8452 76.8093 36.8185 73.9072 35.5081 69.0168C34.1977 64.1264 37.0999 59.0997 41.9903 57.7893C46.8806 56.479 51.9073 59.3811 53.2177 64.2715Z" fill="white" stroke="#3E45EB" stroke-width="0.318466"/>
<path d="M42.1303 58.145L42.13 58.1451C40.4507 58.5951 38.9425 59.5331 37.7964 60.8405C36.6503 62.1479 35.9178 63.7659 35.6916 65.4898C35.4653 67.2136 35.7556 68.9658 36.5255 70.5247C37.2954 72.0835 38.5104 73.379 40.0168 74.2471C41.5232 75.1152 43.2533 75.5169 44.988 75.4014C46.7228 75.2859 48.3844 74.6585 49.7624 73.5984C51.1405 72.5383 52.1731 71.0933 52.7296 69.4461C53.2862 67.799 53.3416 66.0238 52.8889 64.3451L52.8888 64.3449C52.2793 62.0992 50.8053 60.1862 48.7892 59.0244C46.773 57.8626 44.3789 57.5464 42.1303 58.145ZM46.9577 76.1623C45.0731 76.6673 43.081 76.6022 41.2334 75.975C39.3857 75.3478 37.7656 74.1868 36.5778 72.6389C35.39 71.0909 34.6879 69.2255 34.5603 67.2785C34.4327 65.3315 34.8853 63.3904 35.8609 61.7006C36.8364 60.0108 38.2912 58.6483 40.0411 57.7854C41.7911 56.9224 43.7577 56.5977 45.6921 56.8524C47.6266 57.107 49.4421 57.9297 50.909 59.2162C52.376 60.5026 53.4285 62.1951 53.9335 64.0797C54.6069 66.6069 54.2507 69.298 52.943 71.563C51.6354 73.8279 49.483 75.4819 46.9577 76.1623Z" fill="white" stroke="#3E45EB" stroke-width="0.318466"/>
<path d="M47.2572 63.0646C47.7892 65.0502 46.6108 67.0912 44.6252 67.6232C42.6396 68.1553 40.5986 66.9769 40.0666 64.9913C39.5345 63.0056 40.7129 60.9647 42.6985 60.4326C44.6841 59.9006 46.7251 61.0789 47.2572 63.0646Z" fill="#3E45EB" stroke="#3E45EB" stroke-width="0.318466"/>
<path d="M47.9718 62.8725L47.972 62.873C48.2754 64.0053 48.1165 65.2118 47.5304 66.2271C46.9442 67.2424 45.9788 67.9832 44.8464 68.2866L44.8459 68.2867C43.9984 68.5166 43.1017 68.4896 42.2696 68.2092C41.4374 67.9288 40.7072 67.4077 40.1715 66.7118C39.6359 66.016 39.319 65.1767 39.2609 64.3005C39.2028 63.4243 39.4061 62.5506 39.8452 61.7901C40.2843 61.0296 40.9393 60.4166 41.7271 60.0288C42.515 59.641 43.4003 59.4958 44.2708 59.6118C45.1412 59.7277 45.9576 60.0995 46.6165 60.68C47.2754 61.2605 47.7471 62.0236 47.9718 62.8725ZM43.0067 60.8054L42.9877 60.7344L42.8343 60.7748C42.1918 60.9439 41.6139 61.3 41.1738 61.7979C40.7338 62.2958 40.4515 62.9131 40.3626 63.5716C40.2737 64.2301 40.3823 64.9002 40.6745 65.4969C40.9668 66.0936 41.4296 66.5902 42.0043 66.9237C42.579 67.2572 43.2398 67.4126 43.9029 67.3702C44.566 67.3279 45.2016 67.0896 45.7292 66.6857C46.2568 66.2818 46.6527 65.7303 46.8666 65.1012C47.0806 64.4721 47.103 63.7937 46.931 63.1519L46.931 63.1519L46.93 63.1486C46.6852 62.3084 46.1218 61.5971 45.3601 61.1663C44.6446 60.7616 43.8071 60.6344 43.0067 60.8054Z" fill="white" stroke="#3E45EB" stroke-width="0.318466"/>
<path d="M46.7775 75.488L46.7771 75.4881C44.9479 75.9797 43.0117 75.8898 41.237 75.2319C40.9021 73.9008 41.0981 72.4903 41.7855 71.2997C42.4864 70.0857 43.6409 69.1998 44.9951 68.8369C46.3492 68.4741 47.792 68.664 49.0061 69.365C50.1966 70.0524 51.0716 71.1759 51.4472 72.4962C50.2404 73.9547 48.6082 75.0009 46.7775 75.488Z" fill="#3E45EB" stroke="#3E45EB" stroke-width="0.318466"/>
<path d="M46.956 76.1625L46.9562 76.1624C48.958 75.6266 50.7395 74.4722 52.0465 72.864L52.0481 72.862L52.0481 72.862C52.1024 72.7974 52.1394 72.7201 52.1555 72.6372C52.1716 72.5544 52.1663 72.4688 52.1402 72.3886L52.1376 72.3806L52.1378 72.3805C51.727 70.8475 50.7241 69.5405 49.3497 68.747C47.9753 67.9535 46.342 67.7385 44.809 68.1492C43.2761 68.56 41.9691 69.5629 41.1755 70.9373C40.3821 72.3116 40.167 73.9448 40.5776 75.4776C40.6005 75.5612 40.6427 75.6382 40.7008 75.7024L46.956 76.1625ZM46.956 76.1625C44.9589 76.7 42.8428 76.5898 40.9124 75.8476L46.956 76.1625ZM41.5464 74.8734L41.5638 74.9662L41.6536 74.9955C43.2806 75.5249 45.0263 75.571 46.679 75.1282C48.3317 74.6854 49.8205 73.7726 50.9648 72.5005L51.028 72.4303L50.9966 72.3412C50.5861 71.1752 49.7506 70.2072 48.6572 69.6306C47.5638 69.0541 46.293 68.9115 45.099 69.2315C43.905 69.5514 42.8757 70.3102 42.2171 71.3562C41.5584 72.4023 41.3189 73.6583 41.5464 74.8734Z" fill="white" stroke="#3E45EB" stroke-width="0.318466"/>
<path d="M120.688 37.4334L91.5527 45.2403L91.8968 46.5243L121.032 38.7175L120.688 37.4334Z" fill="white"/>
<path d="M122.516 44.2546L62.4092 60.3603L62.7532 61.6443L122.861 45.5386L122.516 44.2546Z" fill="white"/>
<path d="M124.344 51.0757L64.2363 67.1814L64.5804 68.4655L124.688 52.3598L124.344 51.0757Z" fill="white"/>
<rect x="57.7556" y="54.4611" width="65.0363" height="15.911" transform="rotate(-15 57.7556 54.4611)" stroke="#3E45EB" stroke-width="0.318466"/>
<path d="M66.1474 112.524C67.4578 117.415 64.5556 122.441 59.6652 123.752C54.7749 125.062 49.7482 122.16 48.4378 117.27C47.1274 112.379 50.0296 107.353 54.9199 106.042C59.8103 104.732 64.837 107.634 66.1474 112.524Z" fill="white" stroke="#3E45EB" stroke-width="0.318466"/>
<path d="M55.058 106.398L55.0578 106.398C53.379 106.848 51.8713 107.785 50.7253 109.092C49.5794 110.399 48.8466 112.016 48.6198 113.739C48.3929 115.462 48.6821 117.214 49.4508 118.773C50.2195 120.331 51.4332 121.627 52.9384 122.496C54.4435 123.365 56.1726 123.768 57.9069 123.655C59.6412 123.541 61.3028 122.916 62.6817 121.858C64.0606 120.8 65.0947 119.357 65.6534 117.711C66.2121 116.065 66.2701 114.29 65.8203 112.612L65.8202 112.611C65.2137 110.362 63.7404 108.445 61.7231 107.281C59.7058 106.116 57.309 105.799 55.058 106.398ZM59.8853 124.415C58.0007 124.92 56.0086 124.855 54.1611 124.228C52.3135 123.601 50.6933 122.44 49.5055 120.892C48.3177 119.344 47.6156 117.478 47.488 115.531C47.3604 113.584 47.813 111.643 48.7886 109.953C49.7642 108.264 51.2189 106.901 52.9689 106.038C54.7188 105.175 56.6854 104.85 58.6199 105.105C60.5543 105.36 62.3698 106.182 63.8368 107.469C65.3037 108.755 66.3562 110.448 66.8612 112.333C67.5346 114.86 67.1784 117.551 65.8707 119.816C64.563 122.081 62.4106 123.735 59.8853 124.415Z" fill="white" stroke="#3E45EB" stroke-width="0.318466"/>
<path d="M60.1829 111.304C60.715 113.29 59.5366 115.33 57.551 115.863C55.5654 116.395 53.5244 115.216 52.9924 113.231C52.4603 111.245 53.6387 109.204 55.6243 108.672C57.6099 108.14 59.6509 109.318 60.1829 111.304Z" fill="#3E45EB" stroke="#3E45EB" stroke-width="0.318466"/>
<path d="M57.7732 116.526C56.9288 116.752 56.0362 116.723 55.2083 116.442C54.3805 116.161 53.6546 115.641 53.1224 114.947C52.5902 114.254 52.2756 113.418 52.2184 112.545C52.1612 111.673 52.364 110.803 52.8012 110.046C53.2383 109.289 53.8901 108.679 54.6742 108.292C55.4582 107.905 56.3393 107.76 57.2061 107.874C58.0729 107.988 58.8863 108.357 59.5436 108.933C60.2009 109.509 60.6725 110.268 60.8988 111.112C61.2022 112.245 61.0433 113.451 60.4572 114.466C59.871 115.482 58.9056 116.223 57.7732 116.526ZM55.7641 109.028C55.1255 109.199 54.552 109.555 54.1161 110.052C53.6803 110.55 53.4015 111.165 53.3153 111.82C53.229 112.475 53.339 113.142 53.6314 113.735C53.9238 114.328 54.3854 114.82 54.9579 115.151C55.5304 115.482 56.1881 115.635 56.8478 115.592C57.5075 115.548 58.1395 115.311 58.664 114.908C59.1884 114.506 59.5818 113.957 59.7943 113.331C60.0068 112.705 60.0289 112.03 59.8578 111.391C59.6283 110.535 59.0681 109.805 58.3004 109.362C57.5327 108.918 56.6203 108.798 55.7641 109.028Z" fill="white" stroke="#3E45EB" stroke-width="0.318466"/>
<path d="M64.3721 120.736C63.1675 122.198 61.5365 123.249 59.7058 123.741C57.8739 124.228 55.9366 124.134 54.1618 123.471C53.8269 122.14 54.0229 120.73 54.7103 119.539C55.4112 118.325 56.5658 117.439 57.9199 117.076C59.274 116.713 60.7168 116.903 61.9309 117.604C63.1215 118.292 63.9965 119.415 64.3721 120.736Z" fill="#3E45EB" stroke="#3E45EB" stroke-width="0.318466"/>
<path d="M59.8859 124.415L59.8857 124.415C57.8889 124.953 55.7731 124.843 53.8429 124.101C53.7622 124.069 53.69 124.018 53.6317 123.954C53.5736 123.89 53.5309 123.813 53.5071 123.73C53.0968 122.197 53.3119 120.564 54.1052 119.19C54.8988 117.816 56.2057 116.813 57.7387 116.402C59.2717 115.991 60.905 116.206 62.2794 117C63.6538 117.793 64.6567 119.1 65.0675 120.633L65.0673 120.633L65.0693 120.64C65.0946 120.72 65.0994 120.806 65.0832 120.89C65.067 120.973 65.0304 121.051 64.9766 121.116L64.9762 121.117C63.6692 122.725 61.8877 123.879 59.8859 124.415ZM54.4761 123.126L54.4935 123.219L54.5833 123.248C56.2103 123.778 57.956 123.824 59.6087 123.381C61.2614 122.938 62.7502 122.025 63.8945 120.753L63.9577 120.683L63.9263 120.594C63.5158 119.428 62.6803 118.46 61.5869 117.883C60.4935 117.307 59.2227 117.164 58.0287 117.484C56.8347 117.804 55.8054 118.563 55.1468 119.609C54.4881 120.655 54.2486 121.911 54.4761 123.126Z" fill="white" stroke="#3E45EB" stroke-width="0.318466"/>
<path d="M70.6853 102.714L100.977 94.5972L101.256 95.6382L70.9642 103.755L70.6853 102.714Z" fill="white" stroke="#3E45EB" stroke-width="0.318466"/>
<path d="M73.6667 111.253L136.487 94.4199L136.766 95.4609L73.9456 112.294L73.6667 111.253Z" fill="white" stroke="#3E45EB" stroke-width="0.318466"/>
<path d="M75.1481 116.782L137.968 99.9491L138.247 100.99L75.4271 117.823L75.1481 116.782Z" fill="white" stroke="#3E45EB" stroke-width="0.318466"/>
</svg>
