<svg width="33" height="28" viewBox="0 0 33 28" fill="none" xmlns="http://www.w3.org/2000/svg">
<path d="M33 3.83639C31.7643 4.38502 30.4536 4.74513 29.1114 4.90477C30.5094 4.06505 31.5828 2.73534 32.0882 1.15099C30.7593 1.94134 29.3053 2.49818 27.7891 2.79747C26.554 1.47887 24.7946 0.654785 22.8472 0.654785C19.1082 0.654785 16.0767 3.69274 16.0767 7.43967C16.0767 7.97153 16.1366 8.48931 16.252 8.98603C10.6252 8.70298 5.63655 6.00182 2.29724 1.89679C1.71458 2.89889 1.38071 4.06454 1.38071 5.30783C1.38071 7.66187 2.57606 9.73854 4.39261 10.9553C3.31747 10.9216 2.26598 10.6306 1.32593 10.1066C1.32554 10.135 1.32554 10.1634 1.32554 10.192C1.32554 13.4794 3.65926 16.2218 6.75636 16.8451C5.75939 17.1168 4.71362 17.1566 3.69896 16.9614C4.56045 19.657 7.06084 21.6185 10.0234 21.6734C7.70627 23.4932 4.78693 24.5779 1.61507 24.5779C1.0685 24.5779 0.529676 24.5458 0 24.4831C2.99617 26.4083 6.55488 27.5315 10.3782 27.5315C22.8315 27.5315 29.6412 17.1926 29.6412 8.22654C29.6412 7.93225 29.6348 7.63965 29.6216 7.34872C30.9471 6.38845 32.0911 5.19907 33 3.83639Z" fill="#55ACEE"/>
</svg>
