<svg width="117" height="37" viewBox="0 0 117 37" fill="none" xmlns="http://www.w3.org/2000/svg">
<g clip-path="url(#clip0_306_2190)">
<path d="M14.6097 13.382V17.2911H24.0433C23.7929 19.4535 23.0415 21.1169 21.8728 22.1982C20.537 23.5289 18.3664 25.026 14.6097 25.026C8.84929 25.026 4.34116 20.3684 4.34116 14.6296C4.34116 8.89075 8.7658 4.23315 14.6097 4.23315C17.6986 4.23315 20.0361 5.48072 21.7058 7.06098L24.4608 4.31632C22.1232 2.0707 18.9508 0.324097 14.6097 0.324097C6.67871 0.324097 0 6.7283 0 14.6296C0 22.5309 6.67871 28.9351 14.6097 28.9351C18.8673 28.9351 22.1232 27.5211 24.6277 24.9428C27.2157 22.3645 28.0506 18.705 28.0506 15.794C28.0506 14.8791 27.9671 14.0474 27.8836 13.382H14.6097Z" fill="#C4C4C4"/>
<path d="M39.7379 10.1383C34.6454 10.1383 30.3877 14.0474 30.3877 19.3703C30.3877 24.6933 34.5619 28.6024 39.7379 28.6024C44.9139 28.6024 49.0881 24.7765 49.0881 19.4535C49.0881 14.0474 44.9139 10.1383 39.7379 10.1383ZM39.7379 25.026C36.8994 25.026 34.4784 22.6972 34.4784 19.4535C34.4784 16.1266 36.8994 13.881 39.7379 13.881C42.5763 13.881 44.9974 16.1266 44.9974 19.4535C44.9974 22.6972 42.5763 25.026 39.7379 25.026Z" fill="#C4C4C4"/>
<path d="M85.4037 12.2176H85.2368C84.3184 11.1364 82.5653 10.1383 80.3112 10.1383C75.6361 10.1383 71.6289 14.1305 71.6289 19.3703C71.6289 24.527 75.6361 28.6024 80.3112 28.6024C82.5653 28.6024 84.3184 27.6043 85.2368 26.5231H85.4037V27.8538C85.4037 31.347 83.4836 33.26 80.4782 33.26C77.9737 33.26 76.471 31.5134 75.8031 29.9331L72.2968 31.4302C73.2986 33.8422 76.0535 36.9195 80.5617 36.9195C85.3203 36.9195 89.411 34.0917 89.411 27.2716V10.6373H85.5707V12.2176H85.4037ZM80.7286 25.026C77.8902 25.026 75.8031 22.614 75.8031 19.4535C75.8031 16.2098 77.9737 13.881 80.7286 13.881C83.4836 13.881 85.6542 16.293 85.6542 19.5367C85.7377 22.6972 83.5671 25.026 80.7286 25.026Z" fill="#C4C4C4"/>
<path d="M60.526 10.1383C55.4335 10.1383 51.1758 14.0474 51.1758 19.3703C51.1758 24.6933 55.35 28.6024 60.526 28.6024C65.702 28.6024 69.8762 24.7765 69.8762 19.4535C69.8762 14.0474 65.702 10.1383 60.526 10.1383ZM60.526 25.026C57.6875 25.026 55.2665 22.6972 55.2665 19.4535C55.2665 16.1266 57.6875 13.881 60.526 13.881C63.3644 13.881 65.7855 16.1266 65.7855 19.4535C65.7855 22.6972 63.3644 25.026 60.526 25.026Z" fill="#C4C4C4"/>
<path d="M92.501 0.739929H96.5082V28.6855H92.501V0.739929Z" fill="#C4C4C4"/>
<path d="M108.863 25.026C106.776 25.026 105.357 24.1111 104.355 22.1982L116.794 17.1247L116.376 16.0435C115.625 13.9642 113.204 10.1383 108.445 10.1383C103.687 10.1383 99.6797 13.881 99.6797 19.3703C99.6797 24.527 103.603 28.6024 108.863 28.6024C113.121 28.6024 115.542 26.024 116.627 24.527L113.455 22.4477C112.369 24.0279 110.95 25.026 108.863 25.026ZM108.612 13.6315C110.282 13.6315 111.701 14.4632 112.119 15.6276L103.77 19.1208C103.687 15.2949 106.525 13.6315 108.612 13.6315Z" fill="#C4C4C4"/>
</g>
<defs>
<clipPath id="clip0_306_2190">
<rect width="116.794" height="36.5954" fill="white" transform="translate(0 0.324097)"/>
</clipPath>
</defs>
</svg>
