<svg width="16" height="17" viewBox="0 0 16 17" fill="none" xmlns="http://www.w3.org/2000/svg">
<path d="M11.1959 3.02634C12.5749 3.02634 13.6838 4.14232 13.6838 5.5142C13.6838 6.85765 12.6175 7.95231 11.2883 8.00206C11.2269 7.99495 11.1649 7.99495 11.1035 8.00206M12.5678 14.3994C13.0796 14.2928 13.5629 14.0867 13.961 13.781C15.0699 12.9494 15.0699 11.5775 13.961 10.7458C13.57 10.4473 13.0938 10.2483 12.5891 10.1345M6.04247 7.90966C5.97139 7.90255 5.88609 7.90255 5.8079 7.90966C4.99202 7.88196 4.21897 7.53778 3.65243 6.95003C3.0859 6.36227 2.77039 5.57708 2.7727 4.76073C2.7727 3.01923 4.18013 1.6047 5.92874 1.6047C6.76483 1.58962 7.57266 1.90729 8.17453 2.48783C8.7764 3.06837 9.123 3.86422 9.13808 4.70031C9.15316 5.5364 8.83549 6.34424 8.25495 6.94611C7.67441 7.54798 6.87856 7.89458 6.04247 7.90966ZM2.48838 10.5326C0.768197 11.6841 0.768197 13.5607 2.48838 14.7051C4.44313 16.013 7.64892 16.013 9.60367 14.7051C11.3238 13.5536 11.3238 11.677 9.60367 10.5326C7.65603 9.23178 4.45024 9.23178 2.48838 10.5326Z" stroke="#838387" stroke-width="1.27947" stroke-linecap="round" stroke-linejoin="round"/>
</svg>
