<svg width="18" height="18" viewBox="0 0 18 18" fill="none" xmlns="http://www.w3.org/2000/svg">
<g clip-path="url(#clip0_1032_4102)">
<path d="M13.3537 9.8826C13.0552 10.174 12.8846 10.5934 12.9272 11.0412C12.9912 11.8089 13.6949 12.3705 14.4626 12.3705H15.8132V13.2163C15.8132 14.6877 14.6119 15.889 13.1405 15.889H4.98029C3.5089 15.889 2.30762 14.6877 2.30762 13.2163V8.43253C2.30762 6.96114 3.5089 5.75986 4.98029 5.75986H13.1405C14.6119 5.75986 15.8132 6.96114 15.8132 8.43253V9.45611H14.3773C13.9793 9.45611 13.6167 9.61249 13.3537 9.8826Z" stroke="#838387" stroke-width="1.27947" stroke-linecap="round" stroke-linejoin="round"/>
<path d="M2.30762 9.07226V5.82382C2.30762 4.97795 2.82651 4.22448 3.61552 3.92594L9.25942 1.79348C9.46391 1.71642 9.68405 1.69013 9.90094 1.71688C10.1178 1.74362 10.325 1.82259 10.5046 1.94702C10.6843 2.07145 10.8311 2.23761 10.9324 2.43125C11.0337 2.62488 11.0865 2.84021 11.0862 3.05874V5.75985M5.5063 8.78083H10.482M16.5659 10.1811V11.6454C16.5659 12.0364 16.2532 12.3562 15.8551 12.3705H14.4619C13.6942 12.3705 12.9905 11.8089 12.9265 11.0412C12.8839 10.5934 13.0545 10.174 13.353 9.8826C13.616 9.61248 13.9785 9.4561 14.3766 9.4561H15.8551C16.2532 9.47032 16.5659 9.79019 16.5659 10.1811Z" stroke="#838387" stroke-width="1.27947" stroke-linecap="round" stroke-linejoin="round"/>
</g>
<defs>
<clipPath id="clip0_1032_4102">
<rect width="17.0596" height="17.0596" fill="white" transform="translate(0.53125 0.251007)"/>
</clipPath>
</defs>
</svg>
