<svg width="20" height="21" viewBox="0 0 20 21" fill="none" xmlns="http://www.w3.org/2000/svg">
<path d="M20 14.3311C20 17.9711 17.83 20.1411 14.19 20.1411H13C12.45 20.1411 12 19.6911 12 19.1411V13.3711C12 13.1011 12.22 12.8711 12.49 12.8711L14.25 12.8411C14.39 12.8311 14.51 12.7311 14.54 12.5911L14.89 10.6811C14.8968 10.6378 14.8941 10.5936 14.8822 10.5514C14.8702 10.5093 14.8492 10.4702 14.8207 10.4369C14.7922 10.4037 14.7568 10.377 14.717 10.3587C14.6771 10.3404 14.6338 10.331 14.59 10.3311L12.46 10.3611C12.18 10.3611 11.96 10.1411 11.95 9.87111L11.91 7.42111C11.91 7.26111 12.04 7.12111 12.21 7.12111L14.61 7.08111C14.78 7.08111 14.91 6.95111 14.91 6.78111L14.87 4.38111C14.87 4.21111 14.74 4.08111 14.57 4.08111L11.87 4.12111C11.4759 4.1271 11.0868 4.21081 10.725 4.36744C10.3633 4.52406 10.0361 4.75054 9.76201 5.03387C9.48796 5.31721 9.27252 5.65184 9.12803 6.01859C8.98354 6.38534 8.91285 6.77699 8.92 7.17111L8.97 9.92111C8.98 10.2011 8.76 10.4211 8.48 10.4311L7.28 10.4511C7.11 10.4511 6.98 10.5811 6.98 10.7511L7.01 12.6511C7.01 12.8211 7.14 12.9511 7.31 12.9511L8.51 12.9311C8.79 12.9311 9.01 13.1511 9.02 13.4211L9.11 19.1211C9.12 19.6811 8.67 20.1411 8.11 20.1411H5.81C2.17 20.1411 0 17.9711 0 14.3211V5.95111C0 2.31111 2.17 0.141113 5.81 0.141113H14.19C17.83 0.141113 20 2.31111 20 5.95111V14.3311Z" fill="white"/>
</svg>
