<svg width="18" height="19" viewBox="0 0 18 19" fill="none" xmlns="http://www.w3.org/2000/svg">
<path d="M9.16797 12.6786V14.1713" stroke="#838387" stroke-width="1.27947" stroke-linecap="round" stroke-linejoin="round"/>
<path d="M5.61426 16.5881H12.7224V15.8772C12.7224 15.0953 12.0827 14.4556 11.3008 14.4556H7.03589C6.25399 14.4556 5.61426 15.0953 5.61426 15.8772V16.5881Z" stroke="#838387" stroke-width="1.27947" stroke-miterlimit="10"/>
<path d="M4.90338 16.5881H13.4332M9.06167 12.3231C6.3108 12.3231 4.08594 10.0983 4.08594 7.34742V5.21496C4.08594 3.64405 5.3583 2.37169 6.92921 2.37169H11.1941C12.765 2.37169 14.0374 3.64405 14.0374 5.21496V7.34742C14.0374 10.0983 11.8125 12.3231 9.06167 12.3231Z" stroke="#838387" stroke-width="1.27947" stroke-linecap="round" stroke-linejoin="round"/>
<path d="M4.41955 9.23107C3.88644 9.06048 3.4173 8.74772 3.04767 8.37809C2.40794 7.66727 1.98145 6.81429 1.98145 5.81914C1.98145 4.824 2.76335 4.0421 3.75849 4.0421H4.22052C4.07836 4.36908 4.00728 4.73159 4.00728 5.10833V7.24078C4.00728 7.9516 4.15655 8.61977 4.41955 9.23107ZM13.7028 9.23107C14.236 9.06048 14.7051 8.74772 15.0747 8.37809C15.7145 7.66727 16.1409 6.81429 16.1409 5.81914C16.1409 4.824 15.359 4.0421 14.3639 4.0421H13.9019C14.044 4.36908 14.1151 4.73159 14.1151 5.10833V7.24078C14.1151 7.9516 13.9658 8.61977 13.7028 9.23107Z" stroke="#838387" stroke-width="1.27947" stroke-linecap="round" stroke-linejoin="round"/>
</svg>
