<svg width="16" height="16" viewBox="0 0 16 16" fill="none" xmlns="http://www.w3.org/2000/svg">
<path d="M14.3375 5.10974L9.68164 1.38505C8.77179 0.660016 7.35015 0.652908 6.44741 1.37794L1.79155 5.10974C1.12338 5.64285 0.718218 6.70908 0.860382 7.54784L1.75601 12.9074C1.96215 14.1087 3.07814 15.0541 4.29363 15.0541H11.8283C13.0296 15.0541 14.1669 14.0874 14.373 12.9003L15.2687 7.54074C15.3966 6.70908 14.9915 5.64285 14.3375 5.10974ZM8.59409 12.2108C8.59409 12.5022 8.35241 12.7439 8.06097 12.7439C7.76954 12.7439 7.52786 12.5022 7.52786 12.2108V10.0784C7.52786 9.78692 7.76954 9.54524 8.06097 9.54524C8.35241 9.54524 8.59409 9.78692 8.59409 10.0784V12.2108Z" fill="#3E45EB"/>
</svg>
