<svg width="20" height="21" viewBox="0 0 20 21" fill="none" xmlns="http://www.w3.org/2000/svg">
<path d="M14.19 0.141113H5.81C2.17 0.141113 0 2.31111 0 5.95111V14.3211C0 17.9711 2.17 20.1411 5.81 20.1411H14.18C17.82 20.1411 19.99 17.9711 19.99 14.3311V5.95111C20 2.31111 17.83 0.141113 14.19 0.141113ZM10 14.0211C7.86 14.0211 6.12 12.2811 6.12 10.1411C6.12 8.00111 7.86 6.26111 10 6.26111C12.14 6.26111 13.88 8.00111 13.88 10.1411C13.88 12.2811 12.14 14.0211 10 14.0211ZM15.92 5.02111C15.87 5.14111 15.8 5.25111 15.71 5.35111C15.61 5.44111 15.5 5.51111 15.38 5.56111C15.198 5.63836 14.9971 5.65964 14.803 5.62224C14.6089 5.58484 14.4303 5.49045 14.29 5.35111C14.2 5.25111 14.13 5.14111 14.08 5.02111C14.0286 4.90093 14.0015 4.7718 14 4.64111C14 4.51111 14.03 4.38111 14.08 4.26111C14.13 4.13111 14.2 4.03111 14.29 3.93111C14.52 3.70111 14.87 3.59111 15.19 3.66111C15.26 3.67111 15.32 3.69111 15.38 3.72111C15.44 3.74111 15.5 3.77111 15.56 3.81111C15.61 3.84111 15.66 3.89111 15.71 3.93111C15.8 4.03111 15.87 4.13111 15.92 4.26111C15.97 4.38111 16 4.51111 16 4.64111C16 4.77111 15.97 4.90111 15.92 5.02111Z" fill="white"/>
</svg>
