<svg width="18" height="18" viewBox="0 0 18 18" fill="none" xmlns="http://www.w3.org/2000/svg">
<path d="M9.06117 11.1463C9.62673 11.1463 10.1691 10.9216 10.569 10.5217C10.969 10.1218 11.1936 9.57943 11.1936 9.01386C11.1936 8.4483 10.969 7.9059 10.569 7.50599C10.1691 7.10608 9.62673 6.88141 9.06117 6.88141C8.4956 6.88141 7.95321 7.10608 7.55329 7.50599C7.15338 7.9059 6.92871 8.4483 6.92871 9.01386C6.92871 9.57943 7.15338 10.1218 7.55329 10.5217C7.95321 10.9216 8.4956 11.1463 9.06117 11.1463Z" stroke="#838387" stroke-width="1.27947" stroke-miterlimit="10" stroke-linecap="round" stroke-linejoin="round"/>
<path d="M1.95312 9.63937V8.38833C1.95312 7.64908 2.55732 7.03777 3.30368 7.03777C4.59026 7.03777 5.11627 6.12793 4.46942 5.01194C4.0998 4.3722 4.32015 3.54055 4.96699 3.17092L6.19671 2.46721C6.75826 2.13313 7.48329 2.33216 7.81738 2.8937L7.89557 3.02876C8.5353 4.14474 9.58731 4.14474 10.2342 3.02876L10.3123 2.8937C10.6464 2.33216 11.3715 2.13313 11.933 2.46721L13.1627 3.17092C13.8096 3.54055 14.0299 4.3722 13.6603 5.01194C13.0135 6.12793 13.5395 7.03777 14.826 7.03777C15.5653 7.03777 16.1766 7.64197 16.1766 8.38833V9.63937C16.1766 10.3786 15.5724 10.9899 14.826 10.9899C13.5395 10.9899 13.0135 11.8998 13.6603 13.0158C14.0299 13.6626 13.8096 14.4871 13.1627 14.8568L11.933 15.5605C11.3715 15.8946 10.6464 15.6955 10.3123 15.134L10.2342 14.9989C9.59442 13.883 8.54241 13.883 7.89557 14.9989L7.81738 15.134C7.48329 15.6955 6.75826 15.8946 6.19671 15.5605L4.96699 14.8568C4.65715 14.6784 4.43074 14.3843 4.33745 14.0392C4.24417 13.694 4.29163 13.326 4.46942 13.0158C5.11627 11.8998 4.59026 10.9899 3.30368 10.9899C2.55732 10.9899 1.95312 10.3786 1.95312 9.63937Z" stroke="#838387" stroke-width="1.27947" stroke-miterlimit="10" stroke-linecap="round" stroke-linejoin="round"/>
</svg>
