<svg width="22" height="25" viewBox="0 0 22 25" fill="none" xmlns="http://www.w3.org/2000/svg">
<path d="M11.5251 0.161113C12.8351 0.141113 14.1351 0.151113 15.4351 0.141113C15.5151 1.67111 16.0651 3.23111 17.1851 4.31111C18.3051 5.42111 19.8851 5.93111 21.4251 6.10111V10.1311C19.9851 10.0811 18.5351 9.78111 17.2251 9.16111C16.6551 8.90111 16.1251 8.57111 15.6051 8.23111C15.5951 11.1511 15.6151 14.0711 15.5851 16.9811C15.5051 18.3811 15.0451 19.7711 14.2351 20.9211C12.9251 22.8411 10.6551 24.0911 8.32512 24.1311C6.89512 24.2111 5.46512 23.8211 4.24512 23.1011C2.22512 21.9111 0.80512 19.7311 0.59512 17.3911C0.57512 16.8911 0.56512 16.3911 0.58512 15.9011C0.76512 14.0011 1.70512 12.1811 3.16512 10.9411C4.82512 9.50111 7.14512 8.81111 9.31512 9.22111C9.33512 10.7011 9.27512 12.1811 9.27512 13.6611C8.28512 13.3411 7.12512 13.4311 6.25512 14.0311C5.62512 14.4411 5.14512 15.0711 4.89512 15.7811C4.68512 16.2911 4.74512 16.8511 4.75512 17.3911C4.99512 19.0311 6.57512 20.4111 8.25512 20.2611C9.37512 20.2511 10.4451 19.6011 11.0251 18.6511C11.2151 18.3211 11.4251 17.9811 11.4351 17.5911C11.5351 15.8011 11.4951 14.0211 11.5051 12.2311C11.5151 8.20111 11.4951 4.18111 11.5251 0.161113Z" fill="white"/>
</svg>
