<svg width="25" height="21" viewBox="0 0 25 21" fill="none" xmlns="http://www.w3.org/2000/svg">
<path d="M24.4444 2.57647C23.5291 2.98286 22.5582 3.24961 21.564 3.36786C22.5996 2.74585 23.3947 1.76087 23.7691 0.587286C22.7847 1.17273 21.7076 1.58521 20.5845 1.8069C19.6697 0.830157 18.3664 0.219727 16.9239 0.219727C14.1542 0.219727 11.9086 2.47006 11.9086 5.24556C11.9086 5.63953 11.953 6.02308 12.0385 6.39102C7.87054 6.18135 4.17523 4.18049 1.70166 1.13973C1.27006 1.88202 1.02275 2.74547 1.02275 3.66642C1.02275 5.41016 1.90819 6.94843 3.25378 7.84977C2.45738 7.82478 1.6785 7.60921 0.98217 7.22107C0.981884 7.24212 0.981884 7.26317 0.981884 7.28432C0.981884 9.71944 2.71056 11.7508 5.00471 12.2125C4.26621 12.4138 3.49157 12.4433 2.73997 12.2987C3.37811 14.2954 5.23025 15.7484 7.42471 15.7891C5.70835 17.137 3.54588 17.9406 1.19635 17.9406C0.791484 17.9406 0.392352 17.9168 0 17.8703C2.21938 19.2964 4.85547 20.1284 7.68759 20.1284C16.9122 20.1284 21.9565 12.47 21.9565 5.82843C21.9565 5.61044 21.9517 5.3937 21.9419 5.1782C22.9238 4.46689 23.7712 3.58587 24.4444 2.57647Z" fill="white"/>
</svg>
